<svg xmlns="http://www.w3.org/2000/svg" width="74.624" height="95.645" viewBox="0 0 74.624 95.645" preserveAspectRatio="none">
  <path d="M8.182,14.953C14.105,6.066,23.7,0,37.383,0S60.518,6.066,66.442,14.953c6.207,9.311,8.182,20.737,8.182,32.869s-1.975,23.559-8.182,32.869c-5.924,8.887-15.377,14.954-29.059,14.954s-23.278-6.067-29.2-14.954C1.975,71.381,0,59.954,0,47.822S1.975,24.264,8.182,14.953ZM23.275,73.92c3.1,4.091,7.477,6.771,14.108,6.771A16.751,16.751,0,0,0,51.489,73.92c4.373-5.643,6.348-14.53,6.348-26.1s-1.975-20.455-6.348-26.1a16.751,16.751,0,0,0-14.106-6.772c-6.631,0-11,2.681-14.108,6.772-4.513,5.642-6.488,14.53-6.488,26.1S18.9,68.277,23.275,73.92Z"/>
</svg>
