<svg xmlns="http://www.w3.org/2000/svg" width="71.239" height="95.645" viewBox="0 0 71.239 95.645" preserveAspectRatio="none">
  <path d="M63.763,18.339A31.378,31.378,0,0,0,48.1,14.671c-17.21,0-29.625,11.427-31.176,29.2C21.725,36.537,30.471,33.01,40.2,33.01c18.2,0,31.035,12.133,31.035,30.894,0,19.044-15.517,31.741-34.7,31.741C13.261,95.645,0,76.6,0,53.183,0,20.032,20.737,0,49.092,0c8.464,0,15.516,1.976,19.467,4.515ZM36.536,81.256c9.593,0,17.775-6.489,17.775-17.069,0-10.722-8.182-17.07-17.775-17.07s-17.774,6.348-17.774,17.07C18.762,74.625,27.227,81.256,36.536,81.256Z"/>
</svg>
