<svg xmlns="http://www.w3.org/2000/svg" width="67.854" height="95.645" viewBox="0 0 67.854 95.645" preserveAspectRatio="none">
  <path d="M0,69.124c0-10.439,7.194-19.045,16.929-22.43A22.808,22.808,0,0,1,2.116,25.815C2.116,10.58,15.518,0,33.856,0S65.737,10.58,65.737,25.815c0,8.888-6.065,17.634-14.811,20.879,9.592,3.385,16.928,11.991,16.928,22.43,0,15.235-12.979,26.521-34,26.521C12.979,95.645,0,84.359,0,69.124Zm51.066-1.693c0-7.477-6.065-14.107-17.21-14.107-11,0-17.069,6.63-17.069,14.107S22.854,81.4,33.856,81.4C45,81.4,51.066,74.907,51.066,67.431ZM48.95,26.8c0-6.912-5.783-12.978-15.094-12.978S18.9,19.891,18.9,26.8c0,7.618,5.925,13.26,14.953,13.4C43.025,40.063,48.95,34.421,48.95,26.8Z"/>
</svg>
