<svg xmlns="http://www.w3.org/2000/svg" width="70.533" height="95.645" viewBox="0 0 70.533 95.645" preserveAspectRatio="none">
  <path d="M7.194,76.6c3.527,2.256,10.3,4.231,16.364,4.231,19.185,0,29.483-11.567,30.329-28.777C50.5,57.979,42.461,62.635,31.6,62.635,15.094,62.635,0,51.35,0,31.882,0,12.979,15.234,0,34.42,0,53.464,0,70.533,13.543,70.533,42.744c0,33.151-15.8,52.9-46.834,52.9-7.476,0-16.505-2.117-21.16-5.22ZM34.138,14.39c-9.311,0-17.492,6.63-17.492,16.927,0,10.721,8.041,17.07,17.492,17.07,9.169,0,17.492-6.631,17.492-17.07C51.63,21.16,43.307,14.39,34.138,14.39Z"/>
</svg>
