<svg xmlns="http://www.w3.org/2000/svg" width="90.283" height="103.967" viewBox="0 0 90.283 103.967" preserveAspectRatio="none">
  <path d="M57.132,90.283c-7.759,8.323-16.5,13.684-27.367,13.684C10.439,103.967,0,90.848,0,77.729c0-12.838,6.912-19.891,17.351-27.65l.987-.706-1.692-1.834C11.85,42.6,5.219,34.844,5.219,25.533,5.219,9.028,19.044,0,32.022,0,47.681,0,59.39,9.874,59.39,24.827c0,9.875-7.054,17.211-14.108,22.571l-4.373,3.245L57.556,67.994,81.4,42.32V63.48L67.712,78.574l22.571,23.559H68.418ZM46.693,79.7l.141-.141L28.354,59.954l-3.385,2.539c-4.8,3.527-8.182,7.617-8.182,14.107a12.832,12.832,0,0,0,13.26,12.554C36.677,89.154,41.614,85.205,46.693,79.7ZM27.931,37.1l2.821,3.1,5.784-4.232c5.22-3.95,6.772-7.618,6.772-11.426,0-5.925-4.656-10.722-11.145-10.722-5.219,0-10.862,3.527-10.862,10.722C21.3,29.342,24.4,33.292,27.931,37.1Z"/>
</svg>
