<svg xmlns="http://www.w3.org/2000/svg" width="105.659" height="108.763" viewBox="0 0 105.659 108.763" preserveAspectRatio="none">
  <path d="M64.045,73.919a19.759,19.759,0,0,1-16.506,9.028c-12.413,0-21.441-9.874-21.441-24.263,0-18.622,12.837-32.3,27.931-32.3,5.643,0,12.132,2.681,14.247,8.605l1.27-6.771H81.96L74.483,63.2a18.84,18.84,0,0,0-.422,2.962c0,2.822,1.269,5.361,4.795,5.361,7.477,0,14.531-11.286,14.531-25.251,0-20.172-15.376-34.7-38.088-34.7-24.264,0-42.32,17.493-42.32,43.732,0,23.981,16.222,42.038,43.589,42.038a44.757,44.757,0,0,0,27.226-9.028l6.349,8.6c-7.9,7.336-22.007,11.85-33.575,11.85C23.559,108.763,0,87.32,0,55.3,0,22.43,24.969,0,55.157,0c28.779,0,50.5,19.749,50.5,46.129,0,21.3-13.119,36.4-27.79,36.536C70.675,82.665,65.455,79.28,64.045,73.919Zm-9.452-35.69c-9.734,0-15.376,10.3-15.376,19.467,0,7.618,3.244,13.543,10.862,13.543,8.606,0,14.812-8.746,15.094-21.019C65.173,42.743,61.506,38.229,54.593,38.229Z"/>
</svg>
