<svg xmlns="http://www.w3.org/2000/svg" width="69.97" height="124.563" viewBox="0 0 69.97 124.563" preserveAspectRatio="none">
  <path d="M30.329,124.562V109.75C10.721,107.353,1.27,93.387,0,81.255l15.8-4.373c.706,8.041,5.079,15.94,14.53,18.2V69.123l-2.539-.564C12.837,65.173,3.526,56.427,3.526,42.6c0-13.966,11.286-25.535,26.8-27.65V0H43.308V15.094c16.645,2.68,23.7,14.248,25.673,23.558l-15.235,4.8c-.705-4.231-3.385-10.72-10.438-13.4V55.3l1.269.282c16.787,3.668,25.393,14.248,25.393,26.8,0,12.695-9.311,24.827-26.662,27.225v14.953Zm0-71.944V29.482c-6.77,1.694-10.3,6.772-10.3,12.132C20.031,46.693,23.275,51.207,30.329,52.618ZM43.308,71.944V95.079c7.053-1.41,10.3-6.489,10.3-11.85C53.605,78.151,50.361,73.919,43.308,71.944Z"/>
</svg>
