<svg xmlns="http://www.w3.org/2000/svg" width="105.236" height="93.951" viewBox="0 0 105.236 93.951" preserveAspectRatio="none">
  <path d="M23.135,0C35.549,0,46.271,10.016,46.271,22.712c0,12.837-10.722,22.571-23.277,22.571C10.58,45.283,0,35.408,0,22.712S10.58,0,23.135,0ZM12.7,92.682,77.869,1.27H92.54L27.508,92.682ZM23.135,33.151c5.643,0,9.875-4.374,9.875-10.439s-4.232-10.3-9.875-10.3S13.12,16.646,13.12,22.712,17.493,33.151,23.135,33.151ZM82.1,48.669c12.414,0,23.134,10.016,23.134,22.712,0,12.837-10.72,22.57-23.276,22.57-12.413,0-22.993-9.875-22.993-22.57S69.547,48.669,82.1,48.669Zm0,33.15c5.642,0,9.875-4.373,9.875-10.438s-4.233-10.3-9.875-10.3-10.016,4.232-10.016,10.3S76.459,81.819,82.1,81.819Z"/>
</svg>
