<svg xmlns="http://www.w3.org/2000/svg" width="101.71" height="110.738" viewBox="0 0 101.71 110.738" preserveAspectRatio="none">
  <path d="M50.784,0C77.022,0,101.71,19.326,101.71,52.054c0,14.812-5.079,26.944-12.979,35.69L100.581,101l-11.427,9.734-12.272-13.4a52.307,52.307,0,0,1-26.1,6.912C24.546,104.249,0,84.923,0,52.054,0,19.326,24.546,0,50.784,0Zm0,88.167a34.428,34.428,0,0,0,14.953-3.244l-16.5-18.339L60.8,56.709,77.446,75.188c4.232-5.783,6.912-13.4,6.912-23.134,0-24.123-16.645-36.114-33.574-36.114C34,15.94,17.352,27.931,17.352,52.054S34,88.167,50.784,88.167Z"/>
</svg>
