<svg xmlns="http://www.w3.org/2000/svg" width="64.045" height="103.12" viewBox="0 0 64.045 103.12" preserveAspectRatio="none">
  <path d="M22.853,72.509c-.141-1.834-.282-3.386-.282-5.361,0-8.464,3.244-15.377,11.426-21.3l6.489-4.656c4.656-3.385,6.63-7.476,6.63-12.272,0-7.336-4.937-14.248-15.235-14.248-10.439,0-15.941,8.041-15.941,16.081a21.633,21.633,0,0,0,.847,6.349L.846,35.972A24.062,24.062,0,0,1,0,29.482C0,15.376,10.58,0,31.881,0,52.759,0,64.045,13.824,64.045,28.213c0,11.144-5.925,19.044-14.107,24.828l-6.066,4.232a15.756,15.756,0,0,0-7.054,13.4,10.9,10.9,0,0,0,.142,1.834Zm7.194,9.875a10.478,10.478,0,0,1,10.3,10.438,10.3,10.3,0,1,1-10.3-10.438Z"/>
</svg>
