<svg xmlns="http://www.w3.org/2000/svg" width="74.061" height="104.249" viewBox="0 0 74.061 104.249" preserveAspectRatio="none">
  <path d="M57.7,30.329c-.987-6.207-6.207-15.376-19.608-15.376-10.156,0-17.21,6.771-17.21,14.389,0,6.347,3.95,11.144,11.709,12.837l14.389,2.963c17.632,3.526,27.085,14.67,27.085,28.777,0,15.518-12.556,30.33-35.409,30.33C13.261,104.249,1.552,87.885,0,73.5l15.8-4.514c.987,10.439,8.464,20.032,22.852,20.032,11.992,0,18.2-6.067,18.2-13.826,0-6.488-4.8-11.708-13.4-13.542L29.342,58.684C14.106,55.58,3.95,45.564,3.95,30.611,3.95,13.824,19.326,0,37.947,0,61.505,0,70.675,14.389,72.932,25.533Z"/>
</svg>
