<?xml version="1.0" encoding="UTF-8"?>
<svg width="606px" height="95px" viewBox="0 0 606 95" version="1.1" xmlns="http://www.w3.org/2000/svg" xmlns:xlink="http://www.w3.org/1999/xlink">
    <!-- Generator: Sketch 64 (93537) - https://sketch.com -->
    <title>logo</title>
    <desc>Created with Sketch.</desc>
    <g id="logo" stroke="none" stroke-width="1" fill="none" fill-rule="evenodd">
        <polygon id="Fill-2-Copy-2" fill="#000000" points="49 32.7295132 38.109671 0 42.5614 34.1801636 18.4404387 9.42137073 37.3759355 38.2986152 4.851 26.351177 34.5111742 44.1964392 0 47.5 34.5111742 50.8035608 4.851 68.6485087 37.3759355 56.7013848 18.4401226 85.578315 42.5610839 60.8195222 38.1093548 95 49 62.2704868 59.8906452 95 55.4386 60.8195222 79.5595613 85.5786293 60.6243806 56.7013848 93.1493161 68.648823 63.4888258 50.8035608 98 47.5 63.4888258 44.1964392 93.1493161 26.3518055 60.6243806 38.2986152 79.5598774 9.42168499 55.4389161 34.1804778 59.8906452 0"></polygon>
        <path d="M122.259,47.539 C125.689,47.539 128.482,46.608 130.491,45.285 L131.324,37.347 L130.54,37.347 L129.609,39.16 C127.11,44.011 125.64,46.314 122.308,46.314 C117.555,46.314 115.203,39.601 115.203,29.115 C115.203,19.609 117.408,14.17 122.063,14.17 C125.542,14.17 127.208,17.159 129.168,21.324 L130.05,23.186 L130.932,23.186 L130.001,15.003 C127.894,13.827 125.591,12.945 122.308,12.945 C115.693,12.945 109.421,19.217 109.421,30.291 C109.421,41.267 114.468,47.539 122.259,47.539 Z M142.79,47.539 C148.18,47.539 151.806,42.345 151.806,35.485 C151.806,27.449 148.033,23.088 142.839,23.088 C137.498,23.088 133.823,28.331 133.823,35.142 C133.823,43.227 137.596,47.539 142.79,47.539 Z M143.28,46.314 C140.291,46.314 138.968,41.267 138.968,33.672 C138.968,26.763 139.899,24.313 142.349,24.313 C145.338,24.313 146.661,29.409 146.661,37.004 C146.661,43.913 145.73,46.314 143.28,46.314 Z M157.931,47 C159.499,47 161.998,47.049 162.88,47.049 L162.88,46.314 L162.488,46.216 C160.861667,45.8333333 160.449389,45.1238056 160.430679,41.1701257 L160.43,27.351 C161.606,26.371 162.39,25.979 163.468,25.979 C165.428,25.979 166.457,27.449 166.457,30.683 L166.457,40.875 C166.457,45.089 166.114,45.824 164.448,46.216 L164.056,46.314 L164.056,47.049 C164.987,47.049 167.241,47 168.809,47 C170.426,47 172.876,47.049 173.709,47.049 L173.709,46.314 L173.317,46.216 C171.735933,45.8327111 171.326027,45.2151901 171.30859,40.8364221 L171.308,29.899 C171.308,28.968 171.308,28.282 171.112,27.547 C172.19,26.518 173.17,25.979 174.346,25.979 C176.306,25.979 177.286,27.449 177.286,30.683 L177.286,40.875 C177.286,45.089 176.894,45.873 175.326,46.216 L174.885,46.314 L174.885,47.049 C175.816,47.049 178.021,47 179.638,47 C181.206,47 183.705,47.049 184.587,47.049 L184.587,46.314 L184.195,46.216 C182.613933,45.8327111 182.157181,45.2151901 182.137661,40.8364221 L182.137,29.899 C182.137,25.489 180.569,23.235 177.286,23.235 C174.885,23.235 173.17,24.215 170.867,26.616 C170.23,24.264 168.564,23.235 166.408,23.235 C164.203,23.235 162.341,24.313 160.43,26.273 L160.43,23.627 L159.94,23.235 L153.08,24.999 L153.08,25.587 L153.815,25.979 C155.236,26.763 155.628,27.547 155.628,30.291 L155.628,40.532 C155.628,45.187 155.285,45.873 153.619,46.216 L153.129,46.314 L153.129,47.049 C154.011,47.049 156.314,47 157.931,47 Z M189.781,47 C191.349,47 193.848,47.049 194.73,47.049 L194.73,46.314 L194.338,46.216 C192.711667,45.8333333 192.299389,45.1238056 192.280679,41.1701257 L192.28,27.351 C193.456,26.371 194.24,25.979 195.318,25.979 C197.278,25.979 198.307,27.449 198.307,30.683 L198.307,40.875 C198.307,45.089 197.964,45.824 196.298,46.216 L195.906,46.314 L195.906,47.049 C196.837,47.049 199.091,47 200.659,47 C202.276,47 204.726,47.049 205.559,47.049 L205.559,46.314 L205.167,46.216 C203.585933,45.8327111 203.176027,45.2151901 203.15859,40.8364221 L203.158,29.899 C203.158,28.968 203.158,28.282 202.962,27.547 C204.04,26.518 205.02,25.979 206.196,25.979 C208.156,25.979 209.136,27.449 209.136,30.683 L209.136,40.875 C209.136,45.089 208.744,45.873 207.176,46.216 L206.735,46.314 L206.735,47.049 C207.666,47.049 209.871,47 211.488,47 C213.056,47 215.555,47.049 216.437,47.049 L216.437,46.314 L216.045,46.216 C214.463933,45.8327111 214.007181,45.2151901 213.987661,40.8364221 L213.987,29.899 C213.987,25.489 212.419,23.235 209.136,23.235 C206.735,23.235 205.02,24.215 202.717,26.616 C202.08,24.264 200.414,23.235 198.258,23.235 C196.053,23.235 194.191,24.313 192.28,26.273 L192.28,23.627 L191.79,23.235 L184.93,24.999 L184.93,25.587 L185.665,25.979 C187.086,26.763 187.478,27.547 187.478,30.291 L187.478,40.532 C187.478,45.187 187.135,45.873 185.469,46.216 L184.979,46.314 L184.979,47.049 C185.861,47.049 188.164,47 189.781,47 Z M224.032,47.441 C226.237,47.441 228.099,46.314 230.01,44.354 L230.402,47.147 C232.362,47.049 235.939,47.049 237.262,47.049 L237.262,46.314 L236.919,46.216 C235.204,45.726 234.861,45.187 234.861,40.532 L234.861,23.725 L234.371,23.284 L227.315,25.048 L227.315,25.636 L228.001,26.028 C229.569,26.91 230.01,27.792 230.01,30.536 L230.01,43.325 C228.981,44.305 228.05,44.697 226.923,44.697 C225.012,44.697 223.885,43.227 223.885,39.993 L223.885,23.725 L223.346,23.284 L216.535,25.048 L216.535,25.636 L217.172,26.028 C218.642,26.959 218.985,27.645 218.985,30.34 L218.985,40.728 C218.985,45.138 220.7,47.441 224.032,47.441 Z M242.456,47 C244.073,47 246.474,47.049 247.356,47.049 L247.356,46.314 L246.964,46.216 C245.3855,45.8333333 244.927667,45.1238056 244.90676,41.1701257 L244.906,27.351 C246.082,26.371 246.915,25.979 247.993,25.979 C249.953,25.979 251.08,27.449 251.08,30.683 L251.08,40.875 C251.08,45.089 250.737,45.824 249.12,46.216 L248.728,46.314 L248.728,47.049 C249.61,47.049 251.815,47 253.432,47 C255,47 257.499,47.049 258.332,47.049 L258.332,46.314 L257.989,46.216 C256.312111,45.7368889 255.946922,45.2109314 255.931519,40.8362802 L255.931,29.899 C255.931,25.489 254.265,23.235 250.933,23.235 C248.728,23.235 246.817,24.313 244.906,26.273 L244.906,23.627 L244.416,23.235 L237.556,24.999 L237.556,25.587 L238.291,25.979 C239.712,26.714 240.104,27.547 240.104,30.291 L240.104,40.532 C240.104,45.187 239.761,45.873 238.095,46.216 L237.605,46.314 L237.605,47.049 C238.487,47.049 240.888,47 242.456,47 Z M263.232,18.825 C264.996,18.825 266.368,17.649 266.368,15.983 C266.368,14.268 264.996,12.994 263.232,12.994 C261.468,12.994 260.096,14.268 260.096,15.983 C260.096,17.649 261.468,18.825 263.232,18.825 Z M263.722,47 C265.339,47 267.691,47.049 268.524,47.049 L268.524,46.314 L268.034,46.216 C266.452933,45.8806222 266.13672,45.1704731 266.123447,40.83337 L266.123,23.725 L265.584,23.284 L258.724,25.048 L258.724,25.636 L259.41,26.028 C260.831,26.861 261.223,27.645 261.223,30.34 L261.223,40.532 C261.223,45.187 260.88,45.873 259.263,46.216 L258.773,46.314 L258.773,47.049 C259.606,47.049 262.105,47 263.722,47 Z M276.021,47.392 C277.981,47.392 279.696,46.51 280.97,45.089 L280.431,44.256 C279.647,44.844 279.01,44.991 278.177,44.991 C276.805,44.991 275.972,44.109 275.972,42.002 L275.972,25.979 L280.676,25.979 L280.676,23.921 L275.972,23.921 L275.972,16.375 L274.551,16.375 L271.366,23.725 L268.475,25.146 L268.475,25.979 L271.121,25.979 L271.121,42.198 C271.121,45.824 273.13,47.392 276.021,47.392 Z M286.213,55.722 C288.075,55.722 290.084,54.154 291.603,49.352 L297.777,29.899 C299.002,26.077 299.688,24.95 301.158,24.558 L301.697,24.411 L301.697,23.725 C300.878,23.725 300.059,23.76725 298.69075,23.7732857 L298.365,23.774 C296.797,23.774 295.278,23.725 294.396,23.725 L294.396,24.411 L294.935,24.509 C296.258,24.754 296.699,25.489 296.699,26.469 C296.699,27.351 296.405,29.017 295.817,30.977 L293.024,40.581 L289.79,28.821 C289.545,27.939 289.349,26.861 289.349,26.126 C289.349,25.342 289.692,24.754 290.77,24.558 L291.505,24.411 L291.505,23.725 C290.709864,23.725 288.084213,23.7696467 286.440789,23.7737055 L286.213,23.774 C284.645,23.774 282.048,23.725 281.117,23.725 L281.117,24.411 L281.705,24.558 C283.126,24.901 283.812,25.93 285.086,29.752 L290.819,47.245 C290.427,48.568 290.035,49.499 289.496,50.528 C285.919,50.234 284.155,51.41 284.155,53.174 C284.155,54.644 284.939,55.722 286.213,55.722 Z M316.985,46.951 C318.308,46.951 322.375,47.049 323.012,47.049 L323.012,46.314 L322.032,46.118 C319.917462,45.6854808 319.593996,45.0644275 319.582337,39.6783581 L319.582,21.128 C319.582,15.444 319.876,14.807 322.032,14.366 L323.012,14.17 L323.012,13.435 C322.39775,13.435 318.594125,13.526125 317.136969,13.5326339 L316.985,13.533 C315.564,13.533 311.546,13.435 310.86,13.435 L310.86,14.17 L311.889,14.366 C313.996,14.758 314.388,15.444 314.388,21.128 L314.388,39.356 C314.388,45.04 313.996,45.726 311.889,46.118 L310.86,46.314 L310.86,47.049 C311.546,47.049 315.662,46.951 316.985,46.951 Z M330.852,47.441 C334.527,47.441 337.859,44.501 337.859,40.434 C337.859,36.955 335.899,34.848 332.322,32.888 C329.382,31.271 328.304,30.095 328.304,27.743 C328.304,25.783 329.284,24.411 330.95,24.411 C333.008,24.411 334.331,26.371 334.968,30.046 L336.781,30.046 L336.781,24.558 C335.556,23.676 333.155,23.186 331.293,23.186 C327.716,23.186 324.629,26.371 324.629,29.85 C324.629,33.574 326.344,35.583 330.166,37.592 C333.155,39.209 334.282,40.581 334.282,42.786 C334.282,44.795 333.155,46.265 331.146,46.265 C328.598,46.265 326.981,44.06 326.344,40.385 L324.531,40.385 L324.531,45.971 C326.148,46.853 328.598,47.441 330.852,47.441 Z M348.492,47.539 C353.882,47.539 357.508,42.345 357.508,35.485 C357.508,27.449 353.735,23.088 348.541,23.088 C343.2,23.088 339.525,28.331 339.525,35.142 C339.525,43.227 343.298,47.539 348.492,47.539 Z M348.982,46.314 C345.993,46.314 344.67,41.267 344.67,33.672 C344.67,26.763 345.601,24.313 348.051,24.313 C351.04,24.313 352.363,29.409 352.363,37.004 C352.363,43.913 351.432,46.314 348.982,46.314 Z M363.535,47 C365.103,47 367.455,47.049 368.337,47.049 L368.337,46.314 L367.847,46.216 C366.265933,45.8806222 365.902874,45.1704731 365.887518,40.83337 L365.887,12.406 L365.348,12.014 L358.537,13.778 L358.537,14.317 L359.174,14.709 C360.693,15.64 361.036,16.326 361.036,19.021 L361.036,40.532 C361.036,45.187 360.742,45.873 359.027,46.216 L358.537,46.314 L358.537,47.049 C359.419,47.049 361.918,47 363.535,47 Z M373.237,47.441 C375.638,47.441 377.108,46.265 378.97,44.207 C379.264,46.167 380.783,47.245 382.547,47.245 C384.115,47.245 385.242,46.902 386.173,46.412 L386.026,45.726 C385.683,45.824 385.389,45.824 385.144,45.824 C384.213,45.824 383.772,45.04 383.772,43.57 L383.772,30.046 C383.772,24.999 381.812,23.186 377.745,23.186 C373.335,23.186 369.954,26.959 369.954,28.968 C369.954,30.634 370.885,31.369 372.159,31.369 C373.629,31.369 374.707,29.899 374.854,25.195 C375.148,24.95 375.54,24.803 375.981,24.803 C377.892,24.803 378.921,25.979 378.921,30.291 L378.921,33.966 C377.549,34.407 376.03,35.044 374.658,35.632 C370.493,37.445 369.023,39.013 369.023,42.247 C369.023,45.677 371.13,47.441 373.237,47.441 Z M376.471,44.501 C374.854,44.501 373.58,43.325 373.58,40.924 C373.58,38.768 374.364,37.396 376.128,36.318 C377.206,35.632 378.088,35.338 378.921,35.044 L378.921,43.08 C377.843,44.158 377.157,44.501 376.471,44.501 Z M393.523,47.392 C395.483,47.392 397.198,46.51 398.472,45.089 L397.933,44.256 C397.149,44.844 396.512,44.991 395.679,44.991 C394.307,44.991 393.474,44.109 393.474,42.002 L393.474,25.979 L398.178,25.979 L398.178,23.921 L393.474,23.921 L393.474,16.375 L392.053,16.375 L388.868,23.725 L385.977,25.146 L385.977,25.979 L388.623,25.979 L388.623,42.198 C388.623,45.824 390.632,47.392 393.523,47.392 Z M403.911,18.825 C405.675,18.825 407.047,17.649 407.047,15.983 C407.047,14.268 405.675,12.994 403.911,12.994 C402.147,12.994 400.775,14.268 400.775,15.983 C400.775,17.649 402.147,18.825 403.911,18.825 Z M404.401,47 C406.018,47 408.37,47.049 409.203,47.049 L409.203,46.314 L408.713,46.216 C407.131933,45.8806222 406.81572,45.1704731 406.802447,40.83337 L406.802,23.725 L406.263,23.284 L399.403,25.048 L399.403,25.636 L400.089,26.028 C401.51,26.861 401.902,27.645 401.902,30.34 L401.902,40.532 C401.902,45.187 401.559,45.873 399.942,46.216 L399.452,46.314 L399.452,47.049 C400.285,47.049 402.784,47 404.401,47 Z M419.248,47.539 C424.638,47.539 428.264,42.345 428.264,35.485 C428.264,27.449 424.491,23.088 419.297,23.088 C413.956,23.088 410.281,28.331 410.281,35.142 C410.281,43.227 414.054,47.539 419.248,47.539 Z M419.738,46.314 C416.749,46.314 415.426,41.267 415.426,33.672 C415.426,26.763 416.357,24.313 418.807,24.313 C421.796,24.313 423.119,29.409 423.119,37.004 C423.119,43.913 422.188,46.314 419.738,46.314 Z M434.438,47 C436.055,47 438.456,47.049 439.338,47.049 L439.338,46.314 L438.946,46.216 C437.3675,45.8333333 436.909667,45.1238056 436.88876,41.1701257 L436.888,27.351 C438.064,26.371 438.897,25.979 439.975,25.979 C441.935,25.979 443.062,27.449 443.062,30.683 L443.062,40.875 C443.062,45.089 442.719,45.824 441.102,46.216 L440.71,46.314 L440.71,47.049 C441.592,47.049 443.797,47 445.414,47 C446.982,47 449.481,47.049 450.314,47.049 L450.314,46.314 L449.971,46.216 C448.294111,45.7368889 447.928922,45.2109314 447.913519,40.8362802 L447.913,29.899 C447.913,25.489 446.247,23.235 442.915,23.235 C440.71,23.235 438.799,24.313 436.888,26.273 L436.888,23.627 L436.398,23.235 L429.538,24.999 L429.538,25.587 L430.273,25.979 C431.694,26.714 432.086,27.547 432.086,30.291 L432.086,40.532 C432.086,45.187 431.743,45.873 430.077,46.216 L429.587,46.314 L429.587,47.049 C430.469,47.049 432.87,47 434.438,47 Z M114.09,81 L114.09,70.57 L117.975,70.57 L123.925,81 L127.215,81 L120.985,70.43 C124.87,70.045 127.005,67.525 127.005,63.605 C127.005,59.195 124.555,56.57 120.04,56.57 L111.15,56.57 L111.15,81 L114.09,81 Z M119.97,68.085 L114.09,68.085 L114.09,59.125 L119.97,59.125 C122.42,59.125 123.89,60.42 123.89,62.695 L123.89,64.515 C123.89,66.79 122.42,68.085 119.97,68.085 Z M147.2,81 L147.2,78.445 L135.09,78.445 L135.09,69.905 L146.78,69.905 L146.78,67.35 L135.09,67.35 L135.09,59.125 L147.2,59.125 L147.2,56.57 L132.15,56.57 L132.15,81 L147.2,81 Z M156.09,81 L156.09,70.64 L162.04,70.64 C166.555,70.64 169.005,68.015 169.005,63.605 C169.005,59.195 166.555,56.57 162.04,56.57 L153.15,56.57 L153.15,81 L156.09,81 Z M161.97,68.085 L156.09,68.085 L156.09,59.125 L161.97,59.125 C164.42,59.125 165.89,60.42 165.89,62.695 L165.89,64.515 C165.89,66.79 164.42,68.085 161.97,68.085 Z M181.5,81.42 C187.45,81.42 190.04,76.765 190.04,68.785 C190.04,60.805 187.45,56.15 181.5,56.15 C175.55,56.15 172.96,60.805 172.96,68.785 C172.96,76.765 175.55,81.42 181.5,81.42 Z M181.5,78.865 C177.615,78.865 176.075,75.68 176.075,70.78 L176.075,66.79 C176.075,61.89 177.615,58.705 181.5,58.705 C185.385,58.705 186.925,61.89 186.925,66.79 L186.925,70.78 C186.925,75.68 185.385,78.865 181.5,78.865 Z M198.09,81 L198.09,70.57 L201.975,70.57 L207.925,81 L211.215,81 L204.985,70.43 C208.87,70.045 211.005,67.525 211.005,63.605 C211.005,59.195 208.555,56.57 204.04,56.57 L195.15,56.57 L195.15,81 L198.09,81 Z M203.97,68.085 L198.09,68.085 L198.09,59.125 L203.97,59.125 C206.42,59.125 207.89,60.42 207.89,62.695 L207.89,64.515 C207.89,66.79 206.42,68.085 203.97,68.085 Z M224.97,81 L224.97,59.125 L233.125,59.125 L233.125,56.57 L213.875,56.57 L213.875,59.125 L222.03,59.125 L222.03,81 L224.97,81 Z" id="CommunityIsolationREPORT" fill="#000000" fill-rule="nonzero"></path>
    </g>
</svg>