<?xml version="1.0" encoding="UTF-8"?>
<svg width="163px" height="162px" viewBox="0 0 163 162" version="1.1" xmlns="http://www.w3.org/2000/svg" xmlns:xlink="http://www.w3.org/1999/xlink">
    <!-- Generator: Sketch 52 (66869) - http://www.bohemiancoding.com/sketch -->
    <title>person-group</title>
    <desc>Created with Sketch.</desc>
    <g id="person-group" stroke="none" stroke-width="1" fill="none" fill-rule="evenodd">
        <path d="M117.376802,26.1079503 C120.101848,30.3465726 124.814051,33 130,33 C138.284271,33 145,26.2842712 145,18 C145,9.71572875 138.284271,3 130,3 C124.814051,3 120.101848,5.6534274 117.376802,9.89204971 C118.441774,12.434281 119,15.1793027 119,18 C119,20.8206973 118.441774,23.565719 117.376802,26.1079503 Z M118.45656,158.691879 C118.541833,158.697276 118.627662,158.7 118.713951,158.7 L141.286049,158.7 C143.43031,158.7 145.193158,157.009189 145.28257,154.866793 L147.072476,111.978953 L157.95403,105.886855 C159.217472,105.17951 160,103.844588 160,102.396616 L160,75.5 C160,60.036027 147.463973,47.5 132,47.5 L129,47.5 C126.221504,47.5 123.503651,47.9042732 120.910383,48.6853471 C129.032494,55.0206982 134,64.8214797 134,75.5 L134,102.396616 C134,106.016546 132.043679,109.35385 128.885074,111.122213 L120.927524,115.577292 L119.277351,155.116983 C119.225075,156.369561 118.941451,157.578001 118.45656,158.691879 Z" id="Combined-Shape" stroke="#FEF3E0" stroke-width="6"></path>
        <g id="person-copy-3" transform="translate(33.000000, 0.000000)" stroke="#FEF3E0" stroke-width="6">
            <circle id="Oval" cx="32" cy="18" r="15"></circle>
            <path d="M31,47.5 C15.536027,47.5 3,60.036027 3,75.5 L3,102.558699 C3,103.956947 3.73012861,105.253702 4.92566859,105.978809 L14.9303535,112.046753 L16.7174304,154.866793 C16.8068425,157.009189 18.5696902,158.7 20.7139514,158.7 L43.2860486,158.7 C45.4303098,158.7 47.1931575,157.009189 47.2825696,154.866793 L49.0724761,111.978953 L59.9540298,105.886855 C61.2174718,105.17951 62,103.844588 62,102.396616 L62,75.5 C62,60.036027 49.463973,47.5 34,47.5 L31,47.5 Z" id="Combined-Shape"></path>
        </g>
        <g id="person" fill="#FEF3E0">
            <circle id="Oval" cx="32" cy="18" r="18"></circle>
            <path d="M32.5,44.5 L32.5,44.5 C50.4492544,44.5 65,59.0507456 65,77 L65,106.5 L52,113.778123 L50,161.7 L14,161.7 L12,113.778123 L0,106.5 L0,77 C-2.19814969e-15,59.0507456 14.5507456,44.5 32.5,44.5 Z" id="Combined-Shape"></path>
        </g>
    </g>
</svg>