<?xml version="1.0" encoding="UTF-8"?>
<svg width="214px" height="87px" viewBox="0 0 214 87" version="1.1" xmlns="http://www.w3.org/2000/svg" xmlns:xlink="http://www.w3.org/1999/xlink">
    <!-- Generator: Sketch 52 (66869) - http://www.bohemiancoding.com/sketch -->
    <title>shot</title>
    <desc>Created with Sketch.</desc>
    <g id="shot" stroke="none" stroke-width="1" fill="none" fill-rule="evenodd">
        <path d="M111.978202,66 L161,66 L161,21 L136.40625,21 L111.978202,66 Z M168,55.0354444 C168.163301,55.012086 168.330239,55 168.5,55 L207,55 L207,32 L168.5,32 C168.330239,32 168.163301,31.987914 168,31.9645556 L168,55.0354444 Z M168,61.9645556 L168,83.5 C168,85.4329966 166.432997,87 164.5,87 C162.567003,87 161,85.4329966 161,83.5 L161,73 L54.861654,73 C52.4579691,73 50.222393,71.7667112 48.940389,69.7334461 L34.6066113,47 L3.72446019,47 C1.79146357,47 0.224460193,45.4329966 0.224460193,43.5 C0.224460193,41.5670034 1.79146357,40 3.72446019,40 L34.6066113,40 L48.940389,17.2665539 C50.222393,15.2332888 52.4579691,14 54.861654,14 L161,14 L161,3.5 C161,1.56700338 162.567003,3.55085719e-16 164.5,0 C166.432997,-3.55085719e-16 168,1.56700338 168,3.5 L168,25.0354444 C168.163301,25.012086 168.330239,25 168.5,25 L207,25 L207,17.5 C207,15.5670034 208.567003,14 210.5,14 C212.432997,14 214,15.5670034 214,17.5 L214,69.5 C214,71.4329966 212.432997,73 210.5,73 C208.567003,73 207,71.4329966 207,69.5 L207,62 L168.5,62 C168.330239,62 168.163301,61.987914 168,61.9645556 Z" id="Combined-Shape" fill="#FEF3E0" fill-rule="nonzero"></path>
    </g>
</svg>