<?xml version="1.0" encoding="UTF-8"?>
<svg width="163px" height="180px" viewBox="0 0 163 180" version="1.1" xmlns="http://www.w3.org/2000/svg" xmlns:xlink="http://www.w3.org/1999/xlink">
    <!-- Generator: Sketch 52 (66869) - http://www.bohemiancoding.com/sketch -->
    <title>stopwatch</title>
    <desc>Created with Sketch.</desc>
    <g id="stopwatch" stroke="none" stroke-width="1" fill="none" fill-rule="evenodd">
        <path d="M77,109.086225 C72.8850848,107.334834 70,103.254341 70,98.5 C70,93.7456591 72.8850848,89.6651659 77,87.9137747 L77,43.8675657 C77,41.7315682 78.790861,40 81,40 C83.209139,40 85,41.7315682 85,43.8675657 L85,87.5423031 C89.6398324,89.0230578 93,93.3691243 93,98.5 C93,103.630876 89.6398324,107.976942 85,109.457697 L85,118.132434 C85,120.268432 83.209139,122 81,122 C78.790861,122 77,120.268432 77,118.132434 L77,109.086225 Z M146.979838,28.5858179 L142.672633,32.8985003 C141.696866,33.8753553 140.113954,33.8762379 139.137099,32.9004717 C139.136934,32.9003068 139.136769,32.9001419 139.136604,32.8999769 L135.609103,29.3724533 C134.632714,28.3966069 134.632054,26.8140763 135.607627,25.8374148 L135.607131,25.8369199 L139.917527,21.5213784 L137.190338,18.7933666 C135.628565,17.2314765 135.628355,14.699341 137.18987,13.1371925 L137.18919,13.1365125 L142.135491,8.18684243 C143.697271,6.62442829 146.229931,6.62391432 147.792345,8.18569445 C147.792572,8.1859211 147.792799,8.18614778 147.793026,8.18637449 L159.809662,20.2066334 C161.371435,21.7685235 161.371645,24.300659 159.81013,25.8628075 L154.864509,30.8131576 C153.302729,32.3755717 150.770069,32.3760857 149.207655,30.8143056 C149.207428,30.8140789 149.207201,30.8138522 149.206974,30.8136255 L146.979838,28.5858179 Z M85.9250786,24.8924916 C85.6281492,24.9627938 85.3184196,25 85,25 L78,25 C77.6815804,25 77.3718508,24.9627938 77.0749214,24.8924916 C38.4107204,27.1809597 7.76190476,59.2612726 7.76190476,98.5 C7.76190476,139.224425 40.7755745,172.238095 81.5,172.238095 C122.224425,172.238095 155.238095,139.224425 155.238095,98.5 C155.238095,59.2612726 124.58928,27.1809597 85.9250786,24.8924916 Z M74,17.3404893 L74,4 C74,1.790861 75.790861,4.05812251e-16 78,0 L85,0 C87.209139,-4.05812251e-16 89,1.790861 89,4 L89,17.3404893 C130.495643,21.1264793 163,56.01734 163,98.5 C163,143.511207 126.511207,180 81.5,180 C36.4887929,180 -1.13686838e-13,143.511207 -1.13686838e-13,98.5 C-1.13686838e-13,56.01734 32.5043571,21.1264793 74,17.3404893 Z" id="Combined-Shape" fill="#FEF3E0" fill-rule="nonzero"></path>
    </g>
</svg>