<svg xmlns="http://www.w3.org/2000/svg" viewBox="0 0 815.94 815.94"><g fill="#542800" id="Layer_2" data-name="Layer 2"><g id="Icons"><path d="M272,0h0a0,0,0,0,1,0,0V272a0,0,0,0,1,0,0H0a0,0,0,0,1,0,0v0A272,272,0,0,1,272,0Z"/><rect x="271.98" y="271.98" width="271.98" height="271.98"/><path d="M544,544h272a0,0,0,0,1,0,0v0a272,272,0,0,1-272,272h0a0,0,0,0,1,0,0V544A0,0,0,0,1,544,544Z"/><circle cx="387.97" cy="155.99" r="88.27"/><circle cx="165.46" cy="380.86" r="13.23"/><polygon points="666.37 327.87 680.98 377.45 721.93 345.92 704.61 394.62 756.27 393.19 713.64 422.4 756.27 451.61 704.61 450.18 721.93 498.87 680.98 467.35 666.37 516.92 651.77 467.35 610.81 498.87 628.14 450.18 576.48 451.61 619.11 422.4 576.48 393.19 628.14 394.62 610.81 345.92 651.77 377.45 666.37 327.87"/><path d="M481.15,645.65q-31.53,6.87-46.89,16.89,15.56,9.24,47.48,17.49,19.31,4.9,19.31,16.89,0,6.68-4.13,10.41a13.89,13.89,0,0,1-9.63,3.73q-8,0-20.82-14.83t-34.77-27.6v5.11a106.72,106.72,0,0,0,5.21,32.61q5.2,16.3,5.2,23,0,7.67-4.22,11.69a14.16,14.16,0,0,1-10.12,4q-6.87,0-10.5-4.47a17.17,17.17,0,0,1-3.64-11.24q0-4.47,5.5-21.05t5.11-39.66q-16.15,11.37-19.7,14.12a74.21,74.21,0,0,0-8.47,8Q381.88,706,378.44,708.51t-9.56,2.55a13.19,13.19,0,0,1-9.94-4.23,14.25,14.25,0,0,1-4-10.21q0-12.12,17.78-15.79,29.64-6.15,48.61-18.29l-3.35-1.95q-15.56-9.2-45.7-15.26-17.34-3.52-17.34-17,0-7.24,5.1-10.67a18,18,0,0,1,10-3.42q8.25,0,22.4,16.76t29.07,24.12l2.75,1.35V653.7q0-23.18-5.6-38.6t-5.6-19a16.9,16.9,0,0,1,4.42-11.49,14.61,14.61,0,0,1,11.49-5,12.34,12.34,0,0,1,10.22,4.71,17.79,17.79,0,0,1,3.73,11.4q0,1.75-6.68,24.65T431.7,653.7l.59,2.75q16.71-9.23,31.24-25.73t23.57-16.5q7.06,0,10.51,4.13a13.57,13.57,0,0,1,3.44,8.84Q501.05,641.32,481.15,645.65Z"/></g></g></svg>