<svg xmlns="http://www.w3.org/2000/svg" viewBox="0 0 727.35 727.35"><g fill="#3d0c0c" id="Layer_2" data-name="Layer 2"><g id="Icons"><g id="Group_1" data-name="Group 1"><path d="M363.11,727.35a361.68,361.68,0,0,1-199.25-59.68C-3.76,557.49-50.49,331.49,59.68,163.87S395.86-50.5,563.49,59.68,777.84,395.86,667.67,563.49C597.87,669.67,481.58,727.35,363.11,727.35ZM364.23,7.92C248.32,7.92,134.58,64.33,66.3,168.21c-107.78,164-62.06,385.06,101.91,492.84s385.06,62.06,492.84-101.91S723.11,174.08,559.14,66.3A353.8,353.8,0,0,0,364.23,7.92Z"/></g><g id="Group_1-2" data-name="Group 1"><path d="M363.17,692.1a326.59,326.59,0,0,1-179.94-53.9c-151.37-99.49-193.58-303.59-94.08-455s303.59-193.58,455-94.08,193.58,303.59,94.08,455C575.17,640,470.15,692.1,363.17,692.1ZM93.61,186.16l4.45,2.93C1.8,335.55,42.63,533,189.09,629.29a316.08,316.08,0,0,0,174.09,52.14c103.53,0,205.12-50.38,266.11-143.17,96.26-146.46,55.43-343.93-91-440.2-70.84-46.55-155.69-62.72-238.92-45.5S144.62,118.26,98.06,189.09Z"/></g><g id="Group_1-3" data-name="Group 1"><path d="M362.88,656.92A293.38,293.38,0,0,1,118.61,202.6l5.61,3.69-5.61-3.69A293.26,293.26,0,1,1,423,650.73,297.08,297.08,0,0,1,362.88,656.92Zm1.56-573.06A283.65,283.65,0,0,0,307,89.76,278,278,0,0,0,129.83,210C45.07,338.91,81,512.77,210,597.52A279.84,279.84,0,0,0,517.38,129.83,277.49,277.49,0,0,0,364.44,83.86Z"/></g><g id="Group_1-4" data-name="Group 1"><path d="M363,621.66A258.09,258.09,0,0,1,148.08,222c78.14-118.88,238.42-152,357.3-73.89s152,238.42,73.89,357.3A256.23,256.23,0,0,1,415.9,616.22,261.5,261.5,0,0,1,363,621.66Zm1.07-499.74c-78.76,0-156.06,38.33-202.46,108.93A241.83,241.83,0,0,0,565.76,496.5C639,385.07,607.93,234.83,496.5,161.59A240.42,240.42,0,0,0,364.05,121.92Z"/></g><g id="Group_1-5" data-name="Group 1"><path d="M363.33,586.35a221.42,221.42,0,0,1-122-36.55C138.7,482.35,110.09,344,177.55,241.34S383.38,110.09,486,177.55,617.26,383.38,549.8,486A222.74,222.74,0,0,1,363.33,586.35ZM364,159.92a203.81,203.81,0,0,0-170.64,91.81C131.63,345.64,157.81,472.27,251.73,534A204,204,0,0,0,534,475.62c61.73-93.91,35.55-220.54-58.37-282.26A202.55,202.55,0,0,0,364,159.92Z"/></g><g id="Group_1-6" data-name="Group 1"><path d="M363.18,551.15A186,186,0,0,1,260.7,520.34C174.32,463.56,150.23,347.09,207,260.7S380.26,150.23,466.65,207s110.47,173.25,53.69,259.64a186.21,186.21,0,0,1-118.72,80.54A189.54,189.54,0,0,1,363.18,551.15ZM216.06,266.65l9.06,6C174.9,349,196.2,452,272.6,502.23a166,166,0,0,0,229.63-47.48c50.22-76.4,28.91-179.41-47.49-229.63s-179.4-28.91-229.62,47.49Z"/></g><g id="Group_1-7" data-name="Group 1"><path d="M363.44,515.85a152.17,152.17,0,1,1,83.84-279.37c70.14,46.1,89.69,140.66,43.59,210.8A152.24,152.24,0,0,1,363.44,515.85Zm.58-280a129.71,129.71,0,0,0-26.21,2.69,126.93,126.93,0,0,0-80.93,54.9h0A127.83,127.83,0,1,0,364,235.89Z"/></g><g id="Group_1-8" data-name="Group 1"><path d="M363.49,480.59a116.9,116.9,0,0,1-97.55-181.15h0a117,117,0,1,1,97.55,181.15ZM288.65,314.36A89.78,89.78,0,1,0,413,288.65a89.87,89.87,0,0,0-124.34,25.71Z"/></g><g id="Group_1-9" data-name="Group 1"><path d="M363.48,445.38a81.71,81.71,0,0,1-68.07-126.57h0a81.69,81.69,0,1,1,84.8,124.85A82.7,82.7,0,0,1,363.48,445.38ZM320.41,335.24a51.77,51.77,0,1,0,71.7-14.83,51.83,51.83,0,0,0-71.7,14.83Z"/></g><g id="Group_1-10" data-name="Group 1"><path d="M363.58,410.12a46.62,46.62,0,1,1,9.5-1A46.18,46.18,0,0,1,363.58,410.12Zm.12-60.21a13.41,13.41,0,0,0-2.81.29,13.64,13.64,0,0,0-8.72,5.92h0a13.74,13.74,0,1,0,11.53-6.21Z"/></g></g></g></svg>