<svg xmlns="http://www.w3.org/2000/svg" viewBox="0 0 806.48 697.4"><g fill="#ef86ef" id="Layer_2" data-name="Layer 2"><g id="Icons"><polygon points="806.48 697.4 272.21 697.4 272.21 2.88 404.07 2.88 806.48 697.4"/><path d="M0,539.33H68.73l.72-109H1.15L.06,407H69.6l.89-134.82h38L107.61,407H175.5l.89-134.82h38L213.52,407H281l.15,23.26H213.37l-.71,109h68.28l-.79,23.26H212.51l-.89,134.81h-38l.88-134.81H106.59l-.88,134.81h-38l.9-134.81H1.09Zm174.64,0,.71-109H107.46l-.72,109Z"/><circle cx="136.11" cy="136.11" r="136.11"/></g></g></svg>