<?xml version="1.0" encoding="utf-8"?>
<!-- Generator: Adobe Illustrator 25.2.1, SVG Export Plug-In . SVG Version: 6.00 Build 0)  -->
<svg version="1.1" id="Layer_1" xmlns="http://www.w3.org/2000/svg" xmlns:xlink="http://www.w3.org/1999/xlink" x="0px" y="0px"
	 viewBox="0 0 676.1 675.6" style="enable-background:new 0 0 676.1 675.6;" xml:space="preserve">
<style type="text/css">
	.st0{clip-path:url(#SVGID_2_);}
	.st1{fill:#EF86EF;}
</style>
<g id="Layer_2_1_">
	<g id="Icons">
		<g>
			<defs>
				<rect id="SVGID_1_" x="2.1" y="-0.6" width="674" height="674"/>
			</defs>
			<clipPath id="SVGID_2_">
				<use xlink:href="#SVGID_1_"  style="overflow:visible;"/>
			</clipPath>
			<g class="st0">
				<path class="st1" d="M120-163L120-163c179.5,0,325.1,145.5,325.1,325.1v0c0,179.5-145.5,325.1-325.1,325.1h0
					C-59.5,487.1-205,341.6-205,162.1v0C-205-17.5-59.5-163,120-163z"/>
				<path class="st1" d="M-85.2,476.8L-85.2,476.8c113.2,0,204.9,91.7,204.9,204.9v0c0,113.2-91.7,204.9-204.9,204.9l0,0
					c-113.2,0-204.9-91.7-204.9-204.9v0C-290.1,568.5-198.3,476.8-85.2,476.8z"/>
				<polygon class="st1" points="547.4,210.3 563.8,266 609.8,230.6 590.4,285.3 648.4,283.7 600.5,316.5 648.4,349.3 590.4,347.7 
					609.8,402.4 563.8,367 547.4,422.7 531,367 485,402.4 504.5,347.7 446.5,349.3 494.4,316.5 446.5,283.7 504.5,285.3 485,230.6 
					531,266 				"/>
				<path class="st1" d="M143.9,573.7c16.5-3.6,28.8-8,36.8-13.2c-8.1-4.8-20.6-9.4-37.2-13.7c-10.1-2.6-15.1-7-15.1-13.2
					c-0.2-3.1,1-6.1,3.2-8.2c2-1.9,4.8-3,7.6-2.9c4.2,0,9.7,3.9,16.3,11.6c6.7,7.8,15.8,15,27.3,21.6v-4c0-8.7-1.4-17.3-4.1-25.6
					c-2.7-8.5-4.1-14.5-4.1-18c0-4,1.1-7.1,3.3-9.2c2.1-2.1,5-3.2,7.9-3.2c3.6,0,6.3,1.2,8.2,3.5c2,2.5,3,5.6,2.9,8.8
					c0,2.3-1.4,7.8-4.3,16.5s-4.2,19-4,31.1c8.5-5.9,13.6-9.6,15.5-11.1c2.4-1.9,4.6-4,6.6-6.3c7.4-7.9,12-12.6,13.8-13.9
					c1.8-1.3,4.3-2,7.5-2c3-0.1,5.8,1.1,7.8,3.3c2.1,2.1,3.2,5,3.2,8c0,6.3-4.6,10.5-13.9,12.4c-15.5,3.2-28.2,8-38.1,14.3l2.6,1.5
					c8.1,4.8,20.1,8.8,35.8,12c9.1,1.9,13.6,6.3,13.6,13.3c0,3.8-1.3,6.6-4,8.3c-2.3,1.7-5,2.6-7.9,2.7c-4.3,0-10.2-4.4-17.6-13.1
					s-15-15.1-22.8-18.9l-2.2-1v2.2c0,12.1,1.5,22.2,4.4,30.3c2.9,8.1,4.4,13,4.4,14.9c0,3.3-1.2,6.5-3.5,9c-2.3,2.6-5.6,4-9,3.9
					c-3.1,0.1-6.1-1.3-8-3.7c-2-2.5-3-5.7-2.9-8.9c0-0.9,1.7-7.4,5.2-19.3c3.5-12,4.7-20.7,3.5-26.1l-0.5-2.2
					c-9.3,5.3-17.6,12.1-24.5,20.2c-7.6,8.6-13.8,12.9-18.5,12.9c-3.7,0-6.4-1.1-8.2-3.2c-1.7-1.9-2.7-4.4-2.7-6.9
					C128.4,580.8,133.5,575.9,143.9,573.7z"/>
				
					<rect x="302" y="462.2" transform="matrix(0.9924 -0.1231 0.1231 0.9924 -67.9769 55.8303)" class="st1" width="231.7" height="231.7"/>
				<path class="st1" d="M673.3,547.3c-1.9,33.9-1.4,54.9,1.4,63.1c3.7,10.9,11.9,18.3,24.6,22.3c7.2,2.3,19.2,3.9,36,4.7l3.9,11.4
					c-31.5,2.6-54.4,0.6-68.6-5.9c-14.2-6.5-23.6-16.6-28.2-30.2c-4.3-12.6-5.3-35.5-2.8-68.6s2.5-53.1,0.2-59.9
					c-4.1-12-14-20-29.6-24c-8.1-2.1-18.3-3.1-30.7-3l-3.5-10.3c22.7-2.2,40.2-2,52.5,0.5c22.1,4.4,36.3,15.7,42.5,33.9
					C674.4,491.4,675.2,513.5,673.3,547.3z"/>
				<polygon class="st1" points="780.6,149.2 566.7,175.8 436.8,3.8 520.8,-194.7 734.7,-221.3 864.6,-49.3 				"/>
			</g>
		</g>
	</g>
</g>
</svg>
