<svg xmlns="http://www.w3.org/2000/svg" viewBox="0 0 684.17 684.17"><g fill="#efa335" id="Layer_2" data-name="Layer 2"><g id="Icons"><path d="M81.3,109.25h28V574.92H81.3A81.3,81.3,0,0,1,0,493.62V190.54A81.3,81.3,0,0,1,81.3,109.25Z"/><path d="M684.17,190.54V493.62a81.3,81.3,0,0,1-81.3,81.3h-28V109.25h28A81.3,81.3,0,0,1,684.17,190.54Z"/><path d="M574.92,81.29v28H109.25v-28A81.3,81.3,0,0,1,190.55,0H493.62A81.3,81.3,0,0,1,574.92,81.29Z"/><path d="M109.25,574.92H574.92v28a81.3,81.3,0,0,1-81.3,81.3H190.55a81.3,81.3,0,0,1-81.3-81.3Z"/><circle cx="148.97" cy="148.97" r="39.72"/><circle cx="535.2" cy="148.97" r="39.72"/><circle cx="148.97" cy="535.2" r="39.72"/><circle cx="535.2" cy="535.2" r="39.72"/></g></g></svg>