<svg xmlns="http://www.w3.org/2000/svg" viewBox="0 0 1000.6 491.45"><g fill="#ffd524" id="Layer_2" data-name="Layer 2"><g id="Icons"><polygon points="623.84 491.45 132.39 491.45 316 0 623.84 0 623.84 491.45"/><path d="M819.4,45.57Q892.24,75,912.34,75q26.55,0,44.85-24.75Q967.59,36.23,982,0h18.65q-17.94,71.05-42.87,97.24t-58.31,26.19q-30.87,0-101.73-30.14T710.32,63.15q-29.43,0-49.88,31.22-10.77,16.14-19.74,43.42H623.84Q636,86.48,650.75,61.36q26.19-45.21,70.69-45.22Q746.55,16.14,819.4,45.57Z"/><circle cx="738.09" cy="245.72" r="114.25"/><path d="M18,431.66q28.56-6.23,42.47-15.3-14.1-8.37-43-15.84Q0,396.07,0,385.22q0-6.06,3.74-9.44a12.59,12.59,0,0,1,8.72-3.38q7.29,0,18.86,13.44t31.49,25v-4.63a96.8,96.8,0,0,0-4.71-29.54q-4.71-14.76-4.72-20.82,0-6.93,3.83-10.58a12.77,12.77,0,0,1,9.16-3.65c4.16,0,7.33,1.33,9.52,4a15.64,15.64,0,0,1,3.3,10.2q0,4-5,19.07t-4.62,35.92q14.63-10.27,17.85-12.78a67.18,67.18,0,0,0,7.65-7.3q12.86-13.74,16-16c2.07-1.55,5-2.32,8.66-2.32a12,12,0,0,1,9,3.83,13,13,0,0,1,3.65,9.25q0,11-16.1,14.3-26.88,5.6-44,16.58l3,1.78q14.1,8.31,41.4,13.82,15.7,3.19,15.72,15.42c0,4.36-1.54,7.59-4.63,9.64a16.27,16.27,0,0,1-9.07,3.11q-7.47,0-20.29-15.18T72.07,423.09l-2.49-1.22v2.49q0,21,5.07,35t5.07,17.17a15.3,15.3,0,0,1-4,10.41,13.22,13.22,0,0,1-10.41,4.54,11.19,11.19,0,0,1-9.26-4.27,16.15,16.15,0,0,1-3.38-10.32q0-1.61,6-22.34t4.09-30.16l-.53-2.49A107.11,107.11,0,0,0,34,445.18q-13.17,15-21.36,14.95-6.41,0-9.52-3.74a12.31,12.31,0,0,1-3.11-8Q0,435.56,18,431.66Z"/></g></g></svg>