<svg xmlns="http://www.w3.org/2000/svg" viewBox="0 0 802.79 770.16"><g fill="#3d0c0c" id="Layer_2" data-name="Layer 2"><g id="Icons"><path d="M802.79,385.08c-183.3-6.9-197.69-12.57-204.9-178.72l9.5-.36-9.53-.37q-.54-12.65-1.06-26.54-.52,13.86-1.06,26.46C414.31,198.41,408.51,188.88,401.4,0c-7.12,188.88-12.92,198.41-194.35,205.55q-.54-12.62-1.05-26.46-.52,13.91-1.06,26.54l-9.54.37,9.5.36C197.69,372.51,183.3,378.18,0,385.08c183.3,6.9,197.69,12.57,204.9,178.73l-9.5.36,9.54.36c.36,8.44.71,17.27,1.06,26.55q.51-13.87,1.05-26.46c181.43,7.13,187.23,16.66,194.35,205.54,7.11-188.88,12.91-198.41,194.34-205.54q.56,12.6,1.06,26.46c.35-9.28.7-18.11,1.06-26.55l9.53-.36-9.5-.36C605.1,397.65,619.49,392,802.79,385.08ZM595.7,206.44c-7.05,162.47-21,171.42-193.21,178.19C409.55,222.17,423.51,213.22,595.7,206.44ZM400.3,384.63c-172.2-6.77-186.15-15.72-193.21-178.19C379.29,213.22,393.25,222.17,400.3,384.63ZM207.09,563.72c7.06-162.47,21-171.41,193.21-178.19C393.25,548,379.29,557,207.09,563.72Zm195.4-178.19c172.2,6.78,186.16,15.72,193.21,178.19C423.51,557,409.55,548,402.49,385.53Z"/></g></g></svg>