<svg xmlns="http://www.w3.org/2000/svg" viewBox="0 0 735.56 743.6"><g fill="#ffd524" id="Layer_2" data-name="Layer 2"><g id="Icons"><path d="M699.31,528.77c-17.78-18.07-37.39-26.42-86.4-37.66a426.56,426.56,0,0,1-70-22.51,492.59,492.59,0,0,1-269-273.49,425.94,425.94,0,0,1-21.35-70.37c-10.43-49.18-18.45-68.93-36.23-87A126.28,126.28,0,1,0,36.26,214.84c17.78,18.07,37.39,26.42,86.39,37.67a425,425,0,0,1,70,22.5,492.57,492.57,0,0,1,269,273.49A426.93,426.93,0,0,1,483,618.87c10.43,49.19,18.45,68.93,36.23,87A126.28,126.28,0,1,0,699.31,528.77ZM219.62,154.41,168,153l17.33,48.69-41-31.52-14.61,49.57-14.6-49.57-41,31.52L91.49,153l-51.66,1.43L82.46,125.2,39.83,96l51.66,1.43L74.16,48.73l41,31.52,14.6-49.58,14.61,49.58,41-31.52L168,97.42,219.62,96,177,125.2ZM668,635.71q19.31,4.9,19.31,16.9,0,6.67-4.12,10.41a13.94,13.94,0,0,1-9.63,3.73q-8.05,0-20.82-14.83T618,624.32v5.11a107,107,0,0,0,5.2,32.6q5.22,16.31,5.21,23,0,7.66-4.22,11.69a14.17,14.17,0,0,1-10.12,4q-6.87,0-10.51-4.46A17.23,17.23,0,0,1,599.93,685q0-4.46,5.5-21t5.1-39.66q-16.14,11.35-19.69,14.11a75.07,75.07,0,0,0-8.48,8.05q-14.18,15.15-17.63,17.71t-9.55,2.56a13.18,13.18,0,0,1-9.95-4.24,14.25,14.25,0,0,1-4-10.2q0-12.13,17.79-15.79,29.64-6.16,48.61-18.29l-3.35-2q-15.57-9.19-45.71-15.26-17.34-3.53-17.34-17,0-7.23,5.11-10.66a18,18,0,0,1,10-3.42q8.25,0,22.39,16.75t29.07,24.12l2.75,1.36v-2.75q0-23.17-5.59-38.6t-5.6-19a16.85,16.85,0,0,1,4.42-11.49,14.58,14.58,0,0,1,11.49-5,12.29,12.29,0,0,1,10.21,4.72,17.77,17.77,0,0,1,3.74,11.39q0,1.77-6.68,24.65T618,609.39l.59,2.75q16.7-9.24,31.23-25.73t23.57-16.5q7.08,0,10.51,4.12a13.54,13.54,0,0,1,3.44,8.84q0,14.14-19.9,18.47-31.52,6.87-46.89,16.89Q636.12,627.45,668,635.71Z"/></g></g></svg>