<svg xmlns="http://www.w3.org/2000/svg" viewBox="0 0 754.46 765.42"><g fill="#542800" id="Layer_2" data-name="Layer 2"><g id="Icons"><path d="M753.46,293.82a124.84,124.84,0,0,1-14,13.13q-6.54,5.1-36.5,26.15-.74-42.77,9.46-73.45t10.18-39c0-8.37-2.23-15.35-6.73-20.86s-11-8.25-19.47-8.25A26.25,26.25,0,0,0,677.68,199q-7.81,7.47-7.81,21.66,0,12.36,9.63,42.57a197.67,197.67,0,0,1,9.64,60.41v9.46Q648.4,309.44,624.75,282T586.17,254.5a25.75,25.75,0,0,0-17.84,6.91q-7.62,6.93-7.63,19.29,0,22.19,35.78,31.3,59.14,15.27,87.93,32.38Q656,363,597.56,375.68q-36.82,8-36.86,34.2c0,5.82,2.12,11.29,6.37,16.37s10.72,7.64,19.47,7.64q16.74,0,43.66-30.56t57.86-47.67l1.08,5.09q4,19.29-8.36,61.68T668.4,468.11q0,12.36,6.92,21.1t18.92,8.73q13.11,0,21.29-9.28a31.23,31.23,0,0,0,8.19-21.29q0-6.54-10.38-35.11T703,360.75v-5.09l5.09,2.49q23.2,11.46,45.39,35.17V364.64q-23.33-7.47-38.83-16.63l-6.2-3.63a219.43,219.43,0,0,1,45-21.51Z"/><path d="M0,765.42H0l147.05-481A401.93,401.93,0,0,1,531.42,0h0l10.22,33.44C652.93,397.45,380.64,765.42,0,765.42Z"/><rect x="483.34" y="494.3" width="271.12" height="271.12"/></g></g></svg>