<svg xmlns="http://www.w3.org/2000/svg" viewBox="0 0 575.85 767.32"><g fill="#8e48d8" id="Layer_2" data-name="Layer 2"><g id="Icons"><polygon points="201.63 20.88 225.44 101.69 292.21 50.3 263.97 129.69 348.19 127.35 278.68 174.97 348.19 222.59 263.97 220.26 292.21 299.64 225.44 248.25 201.63 329.07 177.82 248.25 111.06 299.64 139.3 220.26 55.08 222.59 124.58 174.97 55.08 127.35 139.3 129.69 111.06 50.3 177.82 101.69 201.63 20.88"/><path d="M453.81,500.51s1.82,126.68-73.52,188.68S181,725,181,725s-1.81-126.69,73.53-188.68S453.81,500.51,453.81,500.51Z"/><path d="M69,767.32c-2.26-2.08-22.64-21.22-40.51-52.16C3.34,671.63-5.39,624.9,3.22,580,12,534.07,38.47,491.09,81.79,452.26c46.74-41.9,114.78-80,202.24-113.3C441.8,278.92,471.6,221.75,475.33,193c7.36-56.74-65.73-110.83-66.47-111.36l.16.12L466.59,0c3.09,2.18,31,22.21,57.72,55,39.2,48,56.58,100,50.27,150.21-5.57,44.41-29.06,85.78-69.8,123C462.69,366.6,400.39,401.67,319.6,432.42,244,461.18,186.66,492.74,149.08,526.24c-26.74,23.84-42.73,48-47.52,72-10.35,51.69,34.88,95.29,35.33,95.73l-.28-.26Z"/></g></g></svg>