<svg xmlns="http://www.w3.org/2000/svg" viewBox="0 0 683.57 615.13"><g fill="#8e48d8" id="Layer_2" data-name="Layer 2"><g id="Icons"><path d="M316.9,366.18a131.57,131.57,0,0,0,24.88,34.56L127.39,615.13A435,435,0,0,1,127.39,0L341.78,214.39A131.57,131.57,0,0,0,316.9,249h-6.81a58.62,58.62,0,1,0,0,117.23Z"/><path d="M556.17,615.13,341.78,400.74a131.57,131.57,0,0,0,24.88-34.56h6.81a58.62,58.62,0,1,0,0-117.23h-6.81a131.57,131.57,0,0,0-24.88-34.56L556.17,0C726,169.86,726,445.27,556.17,615.13Z"/></g></g></svg>