<?xml version="1.0" encoding="utf-8"?>
<!-- Generator: Adobe Illustrator 25.2.1, SVG Export Plug-In . SVG Version: 6.00 Build 0)  -->
<svg version="1.1" id="Layer_1" xmlns="http://www.w3.org/2000/svg" xmlns:xlink="http://www.w3.org/1999/xlink" x="0px" y="0px"
	 viewBox="0 0 684.3 648.6" style="enable-background:new 0 0 684.3 648.6;" xml:space="preserve">
<style type="text/css">
	.st0{clip-path:url(#SVGID_2_);}
	.st1{fill:#78A7EA;}
</style>
<g id="Layer_2_1_">
	<g id="Icons">
		<g>
			<defs>
				<rect id="SVGID_1_" x="0" y="-17.8" width="684.3" height="684.3"/>
			</defs>
			<clipPath id="SVGID_2_">
				<use xlink:href="#SVGID_1_"  style="overflow:visible;"/>
			</clipPath>
			<g class="st0">
				<path class="st1" d="M13.7,0c-179.1,0-324.3,145.2-324.3,324.3s145.2,324.3,324.3,324.3S338,503.4,338,324.3S192.8,0,13.7,0z
					 M188.7,471.7c-81.4,0-147.4-66-147.5-147.4c0-81.4,66-147.4,147.4-147.5s147.4,66,147.5,147.4c0,0,0,0,0,0.1
					C336.1,405.7,270.1,471.7,188.7,471.7L188.7,471.7z"/>
				<path class="st1" d="M670.6,0C491.5,0,346.3,145.2,346.3,324.3s145.2,324.3,324.3,324.3s324.3-145.2,324.3-324.3
					S849.7,0,670.6,0z M495.6,471.7c-81.4,0-147.4-66-147.4-147.4s66-147.4,147.4-147.4S643,242.9,643,324.3v0
					C643,405.7,577,471.7,495.6,471.7L495.6,471.7z"/>
			</g>
		</g>
	</g>
</g>
</svg>
