<svg xmlns="http://www.w3.org/2000/svg" viewBox="0 0 651.59 650.52"><g fill="#78a7ea" id="Layer_2" data-name="Layer 2"><g id="Icons"><path d="M434.21,331.67l217.38-6.41-217.38-6.41,215.21-31.29L432.76,306.27,642.88,250.2l-213,43.86L632,213.8,425.58,282.27,616.94,179,419.93,271,598,146.14,413,260.47,575.34,115.8l-170.54,135L549.39,88.3,395.56,242,520.42,64l-135,170.48L488.8,43.13l-114.32,185,80.43-202L363,223.15,419.21,13.09,350.94,219.56,382.26,4.36l-43.72,213L344.64,0,325.8,216.66v-.11L307,.54,307,0l0,.54,6.08,216.85L269.44,4.87l-.1-.51.07.51,31.24,214.69-68.11-206-.16-.49.13.5,56.13,209.57L196.91,26.54l-.22-.46.19.48,80.23,201.57-114-184.56-.27-.44.25.46L266.19,234.45,131.5,64.39l-.33-.42.3.43L256,242,102.59,88.68l-.38-.38.36.4L246.79,250.75,76.67,116.13l-.42-.33.4.36,162,144.31L54.08,146.42l-.45-.28.43.3L231.66,271,35.12,179.17l-.47-.22.46.25L226,282.27,20.09,214l-.49-.16.48.19,201.64,80.06L9.22,250.31l-.51-.11.51.14,209.61,55.93L2.7,287.61l-.53-.05.52.08,214.69,31.21L.54,325.24l-.54,0,.54,0,216.84,6.39L2.69,362.88l-.52.08.53,0,216.13-18.66L9.22,400.18l-.51.14.51-.11,212.5-43.75L20.08,436.53l-.49.19.5-.16L226,368.25,35.11,471.32l-.46.25.47-.22,196.54-91.86L54.06,504.08l-.43.3.45-.28,184.54-114-162,144.31-.4.36.42-.33L246.79,399.77,102.57,561.82l-.36.4.38-.38L256,408.49,131.47,586.12l-.3.43.33-.42L266.19,416.07,163,606.93l-.25.46.28-.45,114-184.55L196.87,624l-.19.48.22-.47,91.74-196.6L232.51,636.94l-.13.49.16-.48,68.11-206L269.4,645.65l-.07.51.1-.51,43.62-212.52L307,650l0,.54L307,650l18.79-216v-.11l18.84,216.66-6.1-217.39,43.71,213L350.94,431l68.27,206.48L363,427.37,454.9,624.44,374.48,422.39l114.31,185L385.4,416.07l135,170.48L395.56,408.49,549.38,562.22,404.8,399.77l170.54,135L413,390.05,598,504.38l-178-124.89,197,92.08L425.58,368.25,632,436.72,429.87,356.47l213,43.85L432.76,344.25,649.42,363ZM325.79,415.51A90.25,90.25,0,1,1,416,325.26,90.25,90.25,0,0,1,325.79,415.51Z"/><path d="M325.79,0V235a90.25,90.25,0,0,0,0,180.5v235q-9.46,0-18.79-.54h0a324.11,324.11,0,0,1-37.54-4.33h0a321.89,321.89,0,0,1-36.86-8.7h0a319.39,319.39,0,0,1-35.61-13s0,0,0,0a320.77,320.77,0,0,1-33.8-17h0a325.86,325.86,0,0,1-31.54-20.8h0a326.78,326.78,0,0,1-28.88-24.28l0,0a327.54,327.54,0,0,1-25.9-27.43l0,0A325.65,325.65,0,0,1,54.08,504.1s0,0,0,0a325.57,325.57,0,0,1-18.94-32.73,0,0,0,0,1,0,0,321.19,321.19,0,0,1-15-34.76s0,0,0,0A318.86,318.86,0,0,1,9.22,400.21s0,0,0,0A319.88,319.88,0,0,1,2.7,362.91a0,0,0,0,1,0,0,328.73,328.73,0,0,1-2.15-37.6v0a328.73,328.73,0,0,1,2.15-37.6,0,0,0,0,1,0,0,319.88,319.88,0,0,1,6.52-37.27s0,0,0,0A318.86,318.86,0,0,1,20.08,214s0,0,0,0a321.19,321.19,0,0,1,15-34.76,0,0,0,0,1,0,0,325.57,325.57,0,0,1,18.94-32.73l0,0a325.65,325.65,0,0,1,22.57-30.26s0,0,0,0a327.54,327.54,0,0,1,25.9-27.43l0,0A326.78,326.78,0,0,1,131.47,64.4h0a321.13,321.13,0,0,1,31.55-20.8l0,0a322.79,322.79,0,0,1,33.81-17s0,0,0,0a321.18,321.18,0,0,1,35.6-13h0a322.06,322.06,0,0,1,36.87-8.7h0A323.94,323.94,0,0,1,307,.54a0,0,0,0,1,0,0Q316.33,0,325.79,0Z"/></g></g></svg>