<svg xmlns="http://www.w3.org/2000/svg" viewBox="0 0 888.1 555.93"><g fill="#a3e063" id="Layer_2" data-name="Layer 2"><g id="Icons"><rect x="529.06" y="359.04" width="359.04" height="196.88"/><path d="M196.88,359H359a0,0,0,0,1,0,0V555.93a0,0,0,0,1,0,0H0a0,0,0,0,1,0,0v0A196.88,196.88,0,0,1,196.88,359Z"/><path d="M359,0h0a359,359,0,0,1,359,359v0a0,0,0,0,1,0,0H359a0,0,0,0,1,0,0V0A0,0,0,0,1,359,0Z"/><polygon points="443.43 359.04 457.3 406.12 496.19 376.19 479.74 422.42 528.8 421.07 488.31 448.8 528.8 476.54 479.74 475.18 496.19 521.42 457.3 491.49 443.43 538.56 429.56 491.49 390.67 521.42 407.12 475.18 358.06 476.54 398.55 448.8 358.06 421.07 407.12 422.42 390.67 376.19 429.56 406.12 443.43 359.04"/></g></g></svg>