<svg xmlns="http://www.w3.org/2000/svg" viewBox="0 0 567.98 808.94"><g fill="#ef86ef" id="Layer_2" data-name="Layer 2"><g id="Icons"><path d="M475.82,808.94c-13.35,0-29.6-4-48-16.4-14.93-10.08-30.89-25.37-48.8-46.72-30.3-36.15-62.39-84.84-96.36-136.38-32.19-48.85-65.48-99.36-96.09-136.69-36.72-44.78-54-51.29-58.08-52.23C119.42,427.08,93.6,455,83.64,563.4,77.5,630.25,81,692.2,81.08,692.82L1.22,697.58A1043.56,1043.56,0,0,1,3.88,557.05c9.8-108,36.62-174.84,82-204.26,14.33-9.29,44.36-21.82,84.38-1.31,19.62,10,40.22,27.31,63,52.75C271.23,446.66,311,507,349.5,565.42c28.37,43,55.16,83.7,79.79,115.27,20.72,26.57,33.85,38.65,41.2,44.11,2.64-6.3,6.15-17.35,9.31-36.06,5.3-31.42,8.05-75.48,8.17-131,.28-124.19-12.08-303.91-37.8-549.44L529.74,0C558,269.44,570.35,462.26,567.61,589.48c-1.31,61.09-6.1,106.83-14.65,139.83-4,15.29-16,61.8-55.36,75.88A64.46,64.46,0,0,1,475.82,808.94Z"/></g></g></svg>