<svg xmlns="http://www.w3.org/2000/svg" viewBox="0 0 612.13 793.08"><g id="Layer_2" data-name="Layer 2"><g id="Icons"><path d="M552.57,722.33C440.3,843.58,189.06,797.69,123.34,670.19c-51.15-99.25,8.28-253,54.69-254.75,52.69-2,98.76,191.33,106.94,226.57,76.44-188.38,172.69-314.82,235.29-300.87C598,358.44,664.7,601.26,552.57,722.33Z"/><path d="M297.35,478.22c21.12,3,25.18-187,132.42-243,78.31-40.88,156.81,18.36,177.53-13.1C637.4,176.43,521.62-24,399.21,2.38c-71.27,15.34-53.33,159-128,181.9C175.1,213.68,63.33,8.25,18,32.94c-40.81,22.21-11.81,221.83,84.4,259,56.17,21.71,100.72-25.3,144.06,2.91C309.2,335.73,279,475.59,297.35,478.22Z"/></g></g></svg>