<svg xmlns="http://www.w3.org/2000/svg" viewBox="0 0 734.17 745.24"><g fill="#ef86ef" id="Layer_2" data-name="Layer 2"><g id="Icons"><path d="M734.17,55c-.11.53-16.24-4-18.74.19s11.25,12.38,8.76,16.57-16.24-4-18.74.19,11.25,12.37,8.76,16.56-16.24-4-18.74.2,11.25,12.38,8.76,16.57-16.24-4-18.74.19,11.25,12.38,8.76,16.57-16.24-4-18.74.19,11.25,12.38,8.76,16.57-16.24-4-18.74.2,11.25,12.37,8.76,16.57-16.24-4-18.74.19,11.25,12.38,8.76,16.57-16.24-4-18.74.2,11.25,12.37,8.76,16.56-16.25-4-18.74.2,11.25,12.37,8.76,16.57-16.25-4-18.74.19,11.25,12.38,8.75,16.57-16.24-4-18.73.2,11.25,12.37,8.75,16.57-16.24-4-18.74.19S616.9,252,614.4,256.17s-16.24-4-18.74.2,11.25,12.38,8.76,16.57-16.24-4-18.74.2,11.25,12.37,8.76,16.56-16.25-4-18.74.2,11.25,12.38,8.75,16.57-16.24-4-18.74.2,11.26,12.38,8.76,16.57-16.24-4-18.74.2S567,335.81,564.49,340s-16.25-4-18.74.2,11.25,12.37,8.75,16.57-16.24-4-18.74.19,11.26,12.38,8.76,16.57-16.24-4-18.73.19,11.25,12.38,8.75,16.57-16.24-4-18.74.2,11.26,12.37,8.76,16.57-16.24-4-18.74.19,11.25,12.38,8.76,16.57-16.24-4-18.74.2,11.25,12.38,8.75,16.57-16.24-4-18.73.2,11.25,12.38,8.75,16.57-16.24-4-18.74.2,11.25,12.38,8.75,16.57-16.24-4-18.74.2,11.26,12.38,8.76,16.57-16.25-4-18.74.21,11.25,12.38,8.75,16.57-16.24-4-18.74.2,11.25,12.38,8.76,16.57-16.25-4-18.74.2,11.25,12.38,8.75,16.57-16.25-4-18.74.21,11.25,12.38,8.75,16.57-16.25-4-18.75.21,10.34,8.46,9.84,13.32c-.22,2.08-5,6.91-3,6.69s.44-16.13,2.52-16.34,3.73,15.7,5.81,15.48.44-16.13,2.53-16.34,3.73,15.7,5.81,15.48.44-16.13,2.53-16.35,3.73,15.7,5.81,15.49.44-16.13,2.52-16.35,3.73,15.7,5.81,15.49.44-16.13,2.53-16.35,3.73,15.7,5.81,15.48.44-16.13,2.53-16.34,3.73,15.7,5.81,15.48.44-16.13,2.52-16.34,3.73,15.7,5.82,15.48.43-16.13,2.52-16.35,3.73,15.7,5.81,15.49.44-16.13,2.53-16.35,3.73,15.7,5.81,15.49.44-16.13,2.52-16.35,3.74,15.7,5.82,15.49.44-16.14,2.52-16.35,3.73,15.7,5.81,15.48.44-16.13,2.52-16.34,3.73,15.7,5.81,15.48.44-16.13,2.52-16.34,3.73,15.7,5.81,15.48.44-16.13,2.53-16.34,3.73,15.69,5.81,15.48S540,550,542,549.82s3.73,15.7,5.81,15.49.44-16.13,2.52-16.35,3.73,15.7,5.82,15.49.44-16.13,2.52-16.35,3.73,15.7,5.82,15.48.43-16.13,2.52-16.34,3.73,15.7,5.81,15.48.44-16.13,2.52-16.34,3.74,15.7,5.82,15.48.44-16.13,2.52-16.35,3.73,15.7,5.82,15.49.44-16.13,2.52-16.35,3.73,15.7,5.82,15.49.44-16.13,2.52-16.35,3.73,15.7,5.82,15.48.44-16.13,2.53-16.34,3.73,15.7,5.81,15.48.44-16.13,2.53-16.35,3.73,15.7,5.81,15.49.44-16.13,2.53-16.35,3.73,15.7,5.82,15.49.44-16.13,2.52-16.35,3.73,15.7,5.82,15.48.44-16.13,2.53-16.34,3.73,15.7,5.81,15.48.44-16.13,2.53-16.34,3.73,15.69,5.81,15.48.44-16.13,2.53-16.35,3.73,15.7,5.81,15.49.44-16.13,2.53-16.35,3.73,15.7,5.82,15.48.44-16.13,2.53-16.34,6.57,23.29,3.32,24.82-7.28-11.81-10.53-10.28.79,14.86-2.46,16.39-10-13-13.3-11.43,3.56,16,.32,17.53-10.06-12.95-13.3-11.42,3.56,16,.31,17.53-10.05-12.95-13.3-11.42,3.56,16,.31,17.53-10.05-12.95-13.3-11.42,3.56,16,.32,17.53-10.06-12.95-13.3-11.43,3.56,16,.31,17.54-10.06-13-13.3-11.43,3.56,16,.31,17.54-10-13-13.3-11.43,3.56,16,.32,17.53-10.06-13-13.31-11.42,3.56,16,.32,17.53-10.06-13-13.31-11.42,3.57,16,.32,17.53S538.87,609,535.62,610.51s3.57,16,.32,17.53-10.06-12.95-13.31-11.42,3.57,16,.32,17.53-10.06-12.95-13.31-11.42,3.57,16,.32,17.53-10.06-13-13.31-11.42,3.57,16,.32,17.53-10.06-13-13.31-11.42,3.57,16,.32,17.53-10.06-13-13.31-11.42,3.57,16,.32,17.53-10.06-13-13.31-11.42,3.57,16,.32,17.53-10.06-13-13.31-11.42,3.57,16,.32,17.53-10.05-12.95-13.3-11.42,3.56,16,.32,17.53S422,664,418.72,665.49s3.57,16,.32,17.54S409,670.08,405.74,671.6s3.56,16,.31,17.54-10.06-12.95-13.3-11.43,3.56,16,.31,17.54-10.06-13-13.3-11.43,3.56,16,.31,17.54-10.06-13-13.31-11.43,3.57,16,.32,17.54S357,694.52,353.77,696s3.56,16,.31,17.54-10.06-13-13.31-11.42,3.57,16,.32,17.53-10.06-13-13.31-11.42,3.56,16,.31,17.54-10.06-13-13.3-11.43,3.56,16,.31,17.53S305,719,301.79,720.49s3.56,16,.31,17.54S292,725.08,288.79,726.61s3.56,16,.31,17.53c-2.48,1.17-9.75-12.73-13.3-11.42-3,1.1-.71,11.78-3.2,12.49-2,.55-3.46-6-9.4-10.54-8.36-6.4-17.89-2.88-19.2-6.72-2-5.94,13.12-11.11,11.09-17.05s-17.17-.78-19.2-6.72,13.11-11.11,11.09-17-17.17-.78-19.2-6.72,13.11-11.11,11.09-17-17.17-.77-19.2-6.71,13.12-11.11,11.09-17-17.17-.77-19.2-6.71,13.12-11.11,11.09-17-17.17-.78-19.2-6.72,13.11-11.11,11.09-17-17.17-.77-19.2-6.71,13.12-11.11,11.09-17.05-17.17-.78-19.2-6.72,13.11-11.11,11.09-17.05-17.17-.78-19.2-6.72,13.11-11.11,11.09-17.05S173,520,171,514.06s13.11-11.12,11.08-17.06-17.17-.77-19.19-6.72,13.11-11.11,11.08-17-17.17-.77-19.19-6.71,13.11-11.11,11.08-17.06-17.17-.77-19.2-6.72,13.12-11.11,11.09-17.05-17.17-.77-19.2-6.72,13.12-11.11,11.09-17.05-17.17-.77-19.2-6.72,13.12-11.11,11.09-17.05-17.17-.78-19.2-6.72,13.11-11.11,11.08-17.05-17.17-.78-19.19-6.72,13.11-11.11,11.08-17.05-17.17-.78-19.2-6.72,13.12-11.11,11.09-17.06S100,306.06,98,300.11s13.11-11.11,11.09-17.05-17.17-.78-19.2-6.72S103,265.23,101,259.28s-17.17-.77-19.2-6.72,13.12-11.11,11.09-17.05-17.17-.78-19.2-6.72,13.11-11.11,11.09-17.06S67.58,211,65.55,205,78.66,193.9,76.63,188s-17.17-.77-19.2-6.72,13.12-11.11,11.09-17-17.17-.78-19.2-6.72,13.11-11.11,11.09-17.05-17.17-.78-19.2-6.72,13.11-11.11,11.08-17.06-17.17-.77-19.2-6.72,13.12-11.11,11.09-17S27,92.08,25,86.14,38.09,75,36.07,69.08s-17.18-.78-19.2-6.72S30,51.24,28,45.3s-17.17-.78-19.2-6.72S21.86,27.46,19.84,21.52,2.66,20.74.64,14.8s1.28-18,3.22-14c2.36,4.9,17.55-.52,18.3,1.12s-12,7.43-11.24,10.74c.9,3.65,17.4.74,19,5.4,1.55,4.48-12,12-10.52,15s15.64-2.94,18.3,1.12c2.82,4.31-9.85,16-7.49,18.86,2.12,2.59,14.07-4.55,15.27-2.72,1.31,2-12.21,11.54-10.53,15,1.94,4,16.36-2.91,18.3,1.12s-12.47,11-10.52,15S59.1,78.6,61,82.64s-12.47,11-10.53,15,16.36-2.91,18.3,1.13-12.47,11-10.52,15,16.36-2.9,18.3,1.13-12.47,11-10.52,15,16.35-2.91,18.3,1.12-12.47,11-10.53,15,16.36-2.91,18.31,1.13-12.47,11-10.53,15,16.36-2.91,18.3,1.13-12.47,11-10.52,15,16.36-2.91,18.3,1.12-12.47,11-10.53,15,16.36-2.91,18.31,1.13-12.47,11-10.53,15,16.36-2.91,18.31,1.12-12.47,11-10.53,15,16.36-2.91,18.3,1.13-12.47,11-10.52,15,16.36-2.91,18.3,1.13-12.47,11-10.52,15,16.36-2.9,18.3,1.13-12.47,11-10.52,15,16.36-2.91,18.3,1.13-12.47,11-10.53,15,16.36-2.91,18.31,1.12-12.48,11-10.53,15,16.36-2.9,18.3,1.13-12.47,11-10.53,15,16.36-2.91,18.31,1.13-12.47,11-10.53,15,16.36-2.91,18.31,1.13S173,351.92,175,356s16.36-2.91,18.3,1.13-12.47,11-10.52,15,16.36-2.9,18.3,1.13-12.47,11-10.52,15,16.36-2.9,18.3,1.13-12.46,11-10.52,15,16.36-2.9,18.31,1.14-12.47,11-10.53,15,16.36-2.91,18.31,1.13-12.47,11-10.53,15,16.36-2.91,18.31,1.13-12.47,11-10.53,15S238,450,239.94,454s-12.47,11-10.52,15,16.36-2.9,18.3,1.14-12.47,11-10.52,15,7.25-3.71,11.72-3.36c3.94.3,8.14,6.27,9.18,2.45s-14.41-8-13.37-11.82,16.48.39,17.51-3.42-14.4-8-13.36-11.82,16.48.39,17.52-3.43S252,445.76,253,442s16.48.39,17.52-3.42-14.41-8-13.37-11.83,16.48.39,17.51-3.42-14.4-8-13.36-11.82,16.48.39,17.52-3.43-14.41-8-13.37-11.82,16.48.39,17.52-3.42-14.41-8-13.37-11.83,16.48.39,17.52-3.42-14.41-8-13.37-11.83,16.48.39,17.52-3.42-14.4-8-13.37-11.83,16.48.4,17.52-3.42-14.4-8-13.37-11.82,16.48.39,17.52-3.43-14.4-8-13.37-11.82,16.48.39,17.52-3.43-14.4-8-13.37-11.82,16.48.39,17.52-3.43-14.4-8-13.36-11.82,16.47.39,17.51-3.43-14.4-8-13.36-11.82,16.47.39,17.51-3.43-14.4-8-13.36-11.82,16.47.38,17.51-3.43-14.4-8-13.36-11.83,16.48.39,17.51-3.42-14.4-8-13.36-11.83,16.48.39,17.51-3.42-14.4-8-13.36-11.83,16.48.39,17.52-3.42-14.4-8-13.37-11.83,16.48.39,17.52-3.43-14.4-8-13.36-11.83,16.47.39,17.51-3.42-14.4-8-13.36-11.83,16.47.39,17.51-3.42-14.4-8-13.36-11.82,16.47.39,17.51-3.43-14.4-8-13.36-11.82,16.47.39,17.51-3.42-14.4-8-13.36-11.83,16.47.39,17.51-3.43-14.4-8-13.36-11.82,16.48.38,17.51-3.43-14.4-8-13.36-11.83S365,91.59,366,87.78s-14.4-8-13.37-11.83,16.48.38,17.52-3.43-14.4-8-13.36-11.83,16.47.39,17.51-3.43-14.4-8-13.36-11.83,16.48.39,17.51-3.43-14.4-8-13.36-11.82,16.48.38,17.52-3.43,10.78,1,10.51,4.77-16.22,2.59-16.49,6.32,15.69,4.88,15.42,8.61S375.84,49,375.58,52.78s15.69,4.87,15.42,8.61S374.77,64,374.5,67.71s15.7,4.88,15.43,8.61-16.23,2.59-16.5,6.32,15.69,4.88,15.43,8.61-16.23,2.59-16.5,6.33,15.69,4.88,15.42,8.61-16.22,2.59-16.49,6.32,15.69,4.88,15.42,8.61-16.22,2.59-16.49,6.33,15.69,4.88,15.42,8.61-16.23,2.59-16.49,6.32,15.69,4.88,15.42,8.61-16.23,2.59-16.5,6.33,15.69,4.88,15.43,8.61-16.23,2.59-16.5,6.32,15.69,4.88,15.42,8.62-16.22,2.59-16.49,6.32,15.69,4.88,15.42,8.61-16.22,2.59-16.49,6.33,15.69,4.88,15.42,8.61-16.23,2.59-16.49,6.32,15.69,4.88,15.42,8.62S363,228.27,362.71,232s15.69,4.88,15.43,8.62-16.23,2.59-16.5,6.32,15.69,4.88,15.42,8.61-16.22,2.59-16.49,6.33,15.69,4.88,15.42,8.61-16.22,2.59-16.49,6.32,15.69,4.88,15.42,8.61-16.23,2.59-16.49,6.33,15.69,4.87,15.42,8.61-16.23,2.58-16.5,6.32,15.7,4.88,15.43,8.61-16.23,2.59-16.5,6.32,15.69,4.88,15.43,8.62-16.23,2.59-16.5,6.32,15.69,4.88,15.42,8.62-16.22,2.59-16.49,6.32,15.69,4.88,15.42,8.62-16.23,2.59-16.49,6.32,15.69,4.88,15.42,8.62-16.23,2.59-16.5,6.32,15.69,4.89,15.43,8.62-16.23,2.59-16.5,6.33,15.69,4.88,15.42,8.61-16.22,2.6-16.49,6.33,15.69,4.88,15.42,8.62-16.22,2.59-16.49,6.32,15.69,4.88,15.42,8.62-16.23,2.59-16.5,6.33,15.7,4.88,15.43,8.62-16.23,2.59-16.5,6.33,15.69,4.88,15.42,8.62-16.22,2.59-16.49,6.33,4.36-.23,8.1.08c4.59.38,8.42,9.62,11.39,6.1s-9.25-13.84-6.28-17.35,15.19,6.81,18.16,3.29-9.25-13.84-6.27-17.36,15.19,6.81,18.16,3.29-9.25-13.84-6.28-17.36,15.2,6.81,18.17,3.29-9.25-13.84-6.28-17.36,15.19,6.81,18.16,3.3-9.25-13.85-6.28-17.36,15.19,6.81,18.17,3.29-9.25-13.85-6.28-17.36,15.19,6.81,18.16,3.29-9.25-13.84-6.28-17.36,15.19,6.81,18.17,3.29S439,364.92,442,361.4s15.19,6.81,18.16,3.29-9.25-13.84-6.28-17.36,15.2,6.81,18.17,3.29-9.25-13.84-6.28-17.36,15.19,6.81,18.17,3.29-9.25-13.84-6.28-17.36,15.19,6.81,18.16,3.29-9.25-13.84-6.27-17.36,15.19,6.81,18.16,3.29-9.25-13.84-6.28-17.36,15.2,6.81,18.17,3.29-9.25-13.84-6.28-17.36,15.2,6.81,18.17,3.29-9.25-13.84-6.28-17.36,15.19,6.81,18.17,3.29-9.25-13.85-6.28-17.36,15.19,6.8,18.16,3.29S546,238.28,549,234.76s15.19,6.81,18.16,3.29-9.25-13.84-6.27-17.36S576,227.5,579,224s-9.25-13.84-6.27-17.36,15.19,6.81,18.16,3.29-9.25-13.84-6.28-17.36,15.2,6.81,18.17,3.29-9.26-13.84-6.28-17.36,15.19,6.81,18.16,3.29-9.25-13.84-6.28-17.35,15.2,6.8,18.17,3.29-9.25-13.85-6.28-17.37,15.19,6.81,18.17,3.3-9.25-13.85-6.28-17.37,15.19,6.81,18.16,3.29-9.24-13.84-6.27-17.36,15.19,6.81,18.16,3.29S653,111.64,656,108.13s15.19,6.8,18.17,3.28-9.25-13.84-6.28-17.36S683,100.86,686,97.34,676.76,83.49,679.73,80s15.2,6.81,18.17,3.29-9.24-13.85-6.27-17.37,15.19,6.81,18.17,3.29c2.35-2.78-8.88-12.73-6.28-17.36C707.12,45.41,734.31,54.33,734.17,55Z"/></g></g></svg>