<svg xmlns="http://www.w3.org/2000/svg" viewBox="0 0 930.82 435.56"><g fill="#52631d" id="Layer_2" data-name="Layer 2"><g id="Icons"><path d="M752.36,217.78C1067,22.31,908.51-136.16,713,178.45c-20.81-33.47-41.17-61.59-60.61-84.86l-.68-.81c-32.53-38.84-92.51-38.84-125,0l-.68.81c-19.44,23.27-39.8,51.39-60.61,84.86-20.8-33.47-41.17-61.59-60.61-84.86l-.69-.83c-32.52-38.83-92.51-38.83-125,0l-.7.83C259,116.86,238.59,145,217.78,178.45,22.31-136.16-136.16,22.31,178.45,217.78c-314.61,195.48-156.14,353.94,39.33,39.33C238.59,290.58,259,318.7,278.39,342l.7.84c32.52,38.83,92.51,38.82,125,0l.69-.83c19.44-23.27,39.81-51.39,60.61-84.86C486.23,290.58,506.59,318.7,526,342l.68.82c32.53,38.83,92.51,38.83,125,0l.68-.82c19.44-23.27,39.8-51.39,60.61-84.86C908.51,571.72,1067,413.26,752.36,217.78ZM341.62,278.09c-23.22-19.35-51.22-39.62-84.51-60.31,33.29-20.69,61.29-41,84.51-60.31,23.21,19.38,51.18,39.62,84.48,60.31C392.8,238.47,364.83,258.71,341.62,278.09Zm247.61,0C566,258.71,538,238.47,504.75,217.78,538,197.09,566,176.85,589.23,157.5c23.22,19.35,51.19,39.59,84.48,60.28C640.42,238.47,612.45,258.71,589.23,278.06Z"/></g></g></svg>