<?xml version="1.0" encoding="UTF-8"?>
<svg width="136px" height="54px" viewBox="0 0 136 54" version="1.1" xmlns="http://www.w3.org/2000/svg" xmlns:xlink="http://www.w3.org/1999/xlink">
    <!-- Generator: Sketch 52.6 (67491) - http://www.bohemiancoding.com/sketch -->
    <title>access-4</title>
    <desc>Created with Sketch.</desc>
    <g id="Microsite" stroke="none" stroke-width="1" fill="none" fill-rule="evenodd">
        <g id="icons" transform="translate(-817.000000, -116.000000)" stroke="#000000" stroke-width="0.9">
            <g id="access-4" transform="translate(818.000000, 117.000000)">
                <rect id="Rectangle-Copy" x="0" y="0" width="134" height="52" rx="7.2"></rect>
                <path d="M40.8475168,17.68 L33.1492617,17.68 L33.1492617,12.9462069 L54.193557,12.9462069 L54.193557,17.68 L46.495302,17.68 L46.495302,38.5517241 L40.8475168,38.5517241 L40.8475168,17.68 Z M60.3089933,28.6537931 L66.9640268,28.6537931 L63.726443,19.257931 L63.6544966,19.257931 L60.3089933,28.6537931 Z M60.8485906,12.9462069 L66.6402685,12.9462069 L76.2451007,38.5517241 L70.3814765,38.5517241 L68.4389262,32.8496552 L58.834094,32.8496552 L56.8195973,38.5517241 L51.1358389,38.5517241 L60.8485906,12.9462069 Z M84.1232215,23.3103448 L89.842953,23.3103448 C90.8502064,23.3103448 91.6775807,23.0712668 92.3251007,22.5931034 C92.9726207,22.1149401 93.2963758,21.3379364 93.2963758,20.262069 C93.2963758,19.6643648 93.1884575,19.1742548 92.9726174,18.7917241 C92.7567774,18.4091935 92.4689951,18.1103459 92.1092617,17.8951724 C91.7495284,17.6799989 91.3358413,17.5305751 90.8681879,17.4468966 C90.4005346,17.363218 89.9149018,17.3213793 89.4112752,17.3213793 L84.1232215,17.3213793 L84.1232215,23.3103448 Z M78.4754362,12.9462069 L90.5624161,12.9462069 C91.7855095,12.9462069 92.9006661,13.053792 93.9079195,13.2689655 C94.9151728,13.484139 95.7785199,13.8367792 96.4979866,14.3268966 C97.2174533,14.8170139 97.7750316,15.4685017 98.1707383,16.2813793 C98.5664449,17.0942569 98.7642953,18.0983848 98.7642953,19.2937931 C98.7642953,20.584834 98.4705175,21.6606854 97.882953,22.5213793 C97.2953886,23.3820733 96.426046,24.0873536 95.2748993,24.6372414 C96.857726,25.0914965 98.0388328,25.8864311 98.818255,27.022069 C99.5976773,28.1577068 99.9873826,29.5264288 99.9873826,31.1282759 C99.9873826,32.4193168 99.735573,33.5370068 99.2319463,34.4813793 C98.7283196,35.4257518 98.050832,36.1967786 97.1994631,36.7944828 C96.3480942,37.3921869 95.3768287,37.8344813 94.2856376,38.1213793 C93.1944464,38.4082773 92.0732943,38.5517241 90.9221477,38.5517241 L78.4754362,38.5517241 L78.4754362,12.9462069 Z M84.1232215,34.1765517 L90.1667114,34.1765517 C90.7183025,34.1765517 91.2459035,34.1227592 91.7495302,34.0151724 C92.2531569,33.9075857 92.6968213,33.7282771 93.0805369,33.4772414 C93.4642525,33.2262056 93.7700212,32.8855194 93.9978523,32.4551724 C94.2256835,32.0248254 94.3395973,31.4749459 94.3395973,30.8055172 C94.3395973,29.4905681 93.9678784,28.5521867 93.2244295,27.9903448 C92.4809806,27.4285029 91.4977242,27.1475862 90.2746309,27.1475862 L84.1232215,27.1475862 L84.1232215,34.1765517 Z" id="TAB"></path>
            </g>
        </g>
    </g>
</svg>