<?xml version="1.0" encoding="UTF-8"?>
<svg width="120px" height="120px" viewBox="0 0 120 120" version="1.1" xmlns="http://www.w3.org/2000/svg" xmlns:xlink="http://www.w3.org/1999/xlink">
    <!-- Generator: Sketch 52.6 (67491) - http://www.bohemiancoding.com/sketch -->
    <title>access-2</title>
    <desc>Created with Sketch.</desc>
    <g id="Microsite" stroke="none" stroke-width="1" fill="none" fill-rule="evenodd">
        <g id="icons" transform="translate(-625.000000, -84.000000)" stroke="#000000" stroke-width="0.9">
            <g id="access-2" transform="translate(626.000000, 85.000000)">
                <rect id="Rectangle" x="0" y="0" width="52.2442748" height="52.2442748" rx="7.2"></rect>
                <rect id="Rectangle-Copy" x="65.7557252" y="0" width="52.2442748" height="52.2442748" rx="7.2"></rect>
                <rect id="Rectangle-Copy-2" x="0" y="65.7557252" width="52.2442748" height="52.2442748" rx="7.2"></rect>
                <rect id="Rectangle-Copy-3" x="65.7557252" y="65.7557252" width="52.2442748" height="52.2442748" rx="7.2"></rect>
                <path d="M29.4081221,36.9312977 L25.3150534,36.9312977 L25.3150534,23.8450076 L20.2419542,23.8450076 L20.2419542,20.7607939 C20.9529603,20.7800103 21.6399356,20.727166 22.3029008,20.6022595 C22.9658659,20.4773531 23.5615648,20.256368 24.0900153,19.9392977 C24.6184657,19.6222274 25.0652399,19.2042774 25.4303511,18.6854351 C25.7954624,18.1665928 26.0356635,17.5228537 26.1509618,16.7541985 L29.4081221,16.7541985 L29.4081221,36.9312977 Z" id="1"></path>
                <path d="M84.9311756,24.5079695 C84.8927428,23.3549866 85.0272555,22.2836894 85.3347176,21.2940458 C85.6421797,20.3044022 86.1033659,19.439678 86.7182901,18.6998473 C87.3332143,17.9600167 88.106662,17.3835339 89.0386565,16.9703817 C89.970651,16.5572295 91.0419481,16.3506565 92.2525802,16.3506565 C93.1749664,16.3506565 94.0541027,16.4947772 94.8900153,16.7830229 C95.7259278,17.0712686 96.4609434,17.4844146 97.095084,18.0224733 C97.7292245,18.560532 98.233647,19.2234872 98.6083664,20.0113588 C98.9830858,20.7992304 99.1704427,21.6831707 99.1704427,22.6632061 C99.1704427,23.6816743 99.007106,24.5560065 98.6804275,25.286229 C98.353749,26.0164515 97.9213869,26.6649946 97.3833282,27.2318779 C96.8452696,27.7987611 96.2351586,28.3127916 95.5529771,28.7739847 C94.8707956,29.2351779 94.1838203,29.6915601 93.4920305,30.143145 C92.8002408,30.59473 92.1276776,31.0799363 91.4743206,31.5987786 C90.8209637,32.1176209 90.2444809,32.7229278 89.744855,33.4147176 L99.2857405,33.4147176 L99.2857405,36.9312977 L84.4699847,36.9312977 C84.4699847,35.7590985 84.6381255,34.7406455 84.9744122,33.8759084 C85.3106989,33.0111712 85.7670811,32.2377235 86.3435725,31.555542 C86.920064,30.8733605 87.5974312,30.2440334 88.3756947,29.667542 C89.1539581,29.0910506 89.9754461,28.5049597 90.8401832,27.9092519 C91.28216,27.6017898 91.7529542,27.2895283 92.2525802,26.972458 C92.7522061,26.6553877 93.2085883,26.304694 93.6217405,25.9203664 C94.0348927,25.5360388 94.3807823,25.1036767 94.6594198,24.6232672 C94.9380574,24.1428576 95.077374,23.595199 95.077374,22.9802748 C95.077374,22.0002394 94.7939367,21.2363997 94.2270534,20.6887328 C93.6601702,20.141066 92.9347627,19.8672366 92.0508092,19.8672366 C91.4551013,19.8672366 90.9506789,20.0065533 90.5375267,20.2851908 C90.1243745,20.5638284 89.7928969,20.9289341 89.543084,21.3805191 C89.293271,21.832104 89.1155222,22.3317225 89.0098321,22.8793893 C88.904142,23.4270562 88.8512977,23.9699108 88.8512977,24.5079695 L84.9311756,24.5079695 Z" id="2"></path>
                <path d="M24.680916,90.6672366 C25.1228928,90.7056694 25.5936871,90.7056694 26.093313,90.6672366 C26.5929389,90.6288039 27.0589291,90.5183113 27.4912977,90.3357557 C27.9236663,90.1532001 28.279164,89.8889788 28.5578015,89.543084 C28.8364391,89.1971891 28.9757557,88.7360029 28.9757557,88.1595115 C28.9757557,87.2947743 28.6875143,86.6318191 28.1110229,86.170626 C27.5345315,85.7094328 26.8715763,85.4788397 26.1221374,85.4788397 C25.0844528,85.4788397 24.301397,85.8199253 23.7729466,86.5021069 C23.2444961,87.1842884 22.9898829,88.0442086 23.0090992,89.0818931 L19.1178015,89.0818931 C19.1562343,88.0442086 19.3435912,87.097816 19.6798779,86.242687 C20.0161645,85.3875581 20.4869588,84.6525425 21.0922748,84.0376183 C21.6975908,83.4226941 22.4229983,82.9470958 23.2685191,82.6108092 C24.1140399,82.2745225 25.0556284,82.1063817 26.093313,82.1063817 C26.900401,82.1063817 27.7074769,82.2264823 28.5145649,82.466687 C29.3216529,82.7068918 30.0470604,83.0671935 30.6908092,83.5476031 C31.3345579,84.0280126 31.8581965,84.6141034 32.2617405,85.3058931 C32.6652845,85.9976828 32.8670534,86.7951507 32.8670534,87.6983206 C32.8670534,88.678356 32.6316563,89.5430802 32.160855,90.2925191 C31.6900536,91.0419579 30.9838622,91.5511844 30.0422595,91.8202137 L30.0422595,91.8778626 C31.1568096,92.1276755 32.0311419,92.6657261 32.6652824,93.4920305 C33.299423,94.3183349 33.6164885,95.3079637 33.6164885,96.4609466 C33.6164885,97.5178475 33.4099156,98.4594361 32.9967634,99.2857405 C32.5836112,100.112045 32.0311485,100.803824 31.3393588,101.361099 C30.6475691,101.918374 29.8501012,102.341128 28.9469313,102.629374 C28.0437614,102.91762 27.1021728,103.06174 26.1221374,103.06174 C24.9883709,103.06174 23.9555059,102.898404 23.0235115,102.571725 C22.091517,102.245047 21.2988531,101.769448 20.6454962,101.144916 C19.9921392,100.520384 19.4877168,99.756544 19.1322137,98.853374 C18.7767107,97.9502041 18.6085699,96.9125351 18.6277863,95.7403359 L22.519084,95.7403359 C22.5383004,96.2783945 22.6247728,96.792425 22.7785038,97.2824427 C22.9322349,97.7724605 23.1532199,98.1952145 23.4414656,98.5507176 C23.7297114,98.9062206 24.0900131,99.189658 24.5223817,99.4010382 C24.9547503,99.6124184 25.4687807,99.7181069 26.0644885,99.7181069 C26.9868748,99.7181069 27.7651266,99.4346695 28.3992672,98.8677863 C29.0334078,98.300903 29.3504733,97.5274553 29.3504733,96.5474198 C29.3504733,95.7787646 29.2015486,95.1926738 28.9036947,94.7891298 C28.6058407,94.3855858 28.2263229,94.0925404 27.7651298,93.9099847 C27.3039366,93.7274291 26.7995142,93.6217406 26.2518473,93.592916 C25.7041805,93.5640915 25.1805419,93.5496794 24.680916,93.5496794 L24.680916,90.6672366 Z" id="3"></path>
                <path d="M92.8578931,87.6406718 L92.7714198,87.6406718 L87.5541985,94.6450076 L92.8578931,94.6450076 L92.8578931,87.6406718 Z M92.8578931,98.0174656 L84.3258626,98.0174656 L84.3258626,94.2702901 L93.0884885,82.5099237 L96.7491908,82.5099237 L96.7491908,94.6450076 L99.4298626,94.6450076 L99.4298626,98.0174656 L96.7491908,98.0174656 L96.7491908,102.687023 L92.8578931,102.687023 L92.8578931,98.0174656 Z" id="4"></path>
            </g>
        </g>
    </g>
</svg>