<?xml version="1.0" encoding="UTF-8"?>
<svg width="310px" height="206px" viewBox="0 0 310 206" version="1.1" xmlns="http://www.w3.org/2000/svg" xmlns:xlink="http://www.w3.org/1999/xlink">
    <!-- Generator: Sketch 52.6 (67491) - http://www.bohemiancoding.com/sketch -->
    <title>Group 4</title>
    <desc>Created with Sketch.</desc>
    <g id="Page-1" stroke="none" stroke-width="1" fill="none" fill-rule="evenodd">
        <g id="print-out" transform="translate(-152.000000, -29.000000)">
            <g id="Group-4" transform="translate(153.000000, 30.000000)">
                <g id="Group" transform="translate(60.345000, 0.000000)" stroke="#000000" stroke-width="0.5">
                    <path d="M0,111.78 L0,108.796261 L1.60102489,108.796261 C3.00044624,108.796261 4.07371515,108.298976 4.82086384,107.304392 C5.56801252,106.309807 6.11947113,104.952354 6.47525622,103.231991 C6.68872728,102.103003 6.7954612,98.7160902 6.7954612,93.0711504 L6.7954612,21.1388496 C6.7954612,15.5476712 6.66500863,12.0532371 6.40409956,10.6554425 C6.1431905,9.25764788 5.61545053,8.03459595 4.82086384,6.98625 C4.02627714,5.93790405 2.95300822,5.41373894 1.60102489,5.41373894 L0,5.41373894 L0,2.43 L21.5960469,2.43 C27.3597653,2.43 31.9967614,4.2040973 35.5071742,7.75234513 C39.8003143,12.1070129 43.055699,18.6926772 45.2734261,27.5095354 C47.4911531,36.3263936 48.6,46.2989709 48.6,57.4275664 C48.6,65.1154367 48.054471,72.1983858 46.9633968,78.6766261 C45.8723225,85.1548665 44.4610628,90.5040386 42.7295754,94.7243031 C40.998088,98.9445676 38.9997917,102.331481 36.7346266,104.885144 C34.4694616,107.438807 31.7003092,109.414506 28.4270864,110.812301 C26.980227,111.457437 24.7032366,111.78 21.5960469,111.78 L0,111.78 Z M18.3939971,8.63940265 L18.3939971,93.958208 C18.3939971,98.4741597 18.4888717,101.242827 18.6786237,102.264292 C18.8683758,103.285757 19.1885775,104.065285 19.6392387,104.602898 C20.2796518,105.409318 21.2046792,105.812522 22.4143485,105.812522 C26.3754224,105.812522 29.3995503,102.748172 31.4868228,96.6193805 C34.3331035,88.3401356 35.7562225,75.4913703 35.7562225,58.0726991 C35.7562225,44.0409918 34.7837579,32.8319225 32.8387994,24.4451549 C31.297064,17.8862725 29.3165568,13.424149 26.8972182,11.0586504 C25.1894497,9.39204919 22.355071,8.58564132 18.3939971,8.63940265 Z" id="Combined-Shape"></path>
                    <path d="M82.62,71.6204289 L64.2877941,71.6204289 C64.502207,81.6036675 65.6814599,89.493528 67.8255882,95.2902472 C69.46942,99.7451333 71.4467532,101.972543 73.7576471,101.972543 C75.187066,101.972543 76.4854353,101.073528 77.6527941,99.2754717 C78.8201529,97.4774153 80.0708757,94.243646 81.405,89.5740666 L82.62,91.3452775 C80.8094027,99.664643 78.8082463,105.555202 76.6164706,109.017132 C74.4246949,112.479061 71.8875144,114.21 69.0048529,114.21 C64.049534,114.21 60.2973657,109.916198 57.7482353,101.328466 C55.6994015,94.4046072 54.675,85.8170038 54.675,75.5653986 C54.675,63.0058403 56.1818232,53.0093333 59.1955147,45.5755777 C62.2092062,38.1418221 65.7410092,34.425 69.7910294,34.425 C73.1739875,34.425 76.1102081,37.5514243 78.5997794,43.8043668 C81.0893507,50.0573093 82.4294108,59.3292372 82.62,71.6204289 Z M73.8291176,66.2262866 C73.8291176,57.5848811 73.6206638,51.6540676 73.20375,48.433668 C72.7868362,45.2132685 72.1376515,42.7711688 71.2561765,41.1072957 C70.7558799,40.1411758 70.0888277,39.6581231 69.255,39.6581231 C68.0161703,39.6581231 67.0036804,41.0267724 66.2175,43.764112 C64.8119047,48.541038 64.1091176,55.0890855 64.1091176,63.4084511 L64.1091176,66.2262866 L73.8291176,66.2262866 Z" id="Combined-Shape"></path>
                    <path d="M99.8052404,8.91 L99.8052404,36.5046279 L107.73,36.5046279 L107.73,44.4925465 L99.8052404,44.4925465 L99.8052404,91.0483953 C99.8052404,95.4054636 99.8944823,98.2159995 100.072969,99.4800872 C100.251455,100.744175 100.566777,101.766188 101.018942,102.546157 C101.471108,103.326126 101.88757,103.716105 102.268341,103.716105 C103.815224,103.716105 105.278791,101.053492 106.659087,95.728186 L107.73,97.5032791 C105.802346,107.831145 102.67293,112.995 98.3416587,112.995 C96.2236192,112.995 94.4328318,111.663694 92.9692428,109.001041 C91.5056537,106.338388 90.5715886,103.366482 90.1670192,100.085233 C89.9290373,98.2563397 89.8100481,93.307645 89.8100481,85.239 L89.8100481,44.4925465 L85.455,44.4925465 L85.455,41.6685349 C88.4535727,36.8811389 91.0058909,31.8517589 93.1120313,26.5802442 C95.2181716,21.3087295 97.0565546,15.418707 98.6272356,8.91 L99.8052404,8.91 Z" id="Path"></path>
                    <path d="M124.649215,36.2809346 L124.649215,53.3994393 C126.869413,45.5937927 128.815041,40.4125361 130.486158,37.855514 C132.157275,35.2984919 133.768685,34.02 135.320436,34.02 C136.657329,34.02 137.725634,34.9485888 138.525383,36.8057944 C139.325132,38.6629999 139.725,41.2872728 139.725,44.6786916 C139.725,48.2854386 139.337068,51.0846629 138.561192,53.0764486 C137.785317,55.0682343 136.848312,56.0641121 135.750149,56.0641121 C134.484875,56.0641121 133.386729,55.1489811 132.455679,53.3186916 C131.524628,51.4884021 130.975555,50.4656086 130.808443,50.2502804 C130.569712,49.9272881 130.295176,49.7657944 129.984826,49.7657944 C129.292506,49.7657944 128.636006,50.357938 128.015305,51.542243 C127.036508,53.3725325 126.296453,55.9833475 125.795118,59.3747664 C125.031179,64.5964747 124.649215,70.3564171 124.649215,76.6547664 L124.649215,94.015514 L124.685025,98.5373832 C124.685025,101.60581 124.768579,103.57065 124.935691,104.431963 C125.222168,105.885428 125.645909,106.948595 126.206927,107.621495 C126.767945,108.294396 127.716886,108.711588 129.05378,108.873084 L129.05378,111.78 L110.97,111.78 L110.97,108.873084 C112.426259,108.603924 113.411009,107.702251 113.924281,106.168037 C114.437552,104.633824 114.694184,100.583023 114.694184,94.015514 L114.694184,52.268972 C114.694184,47.9624084 114.598693,45.2170153 114.407709,44.0327103 C114.168978,42.525413 113.822823,41.4218727 113.369234,40.7220561 C112.915645,40.0222395 112.115909,39.5377584 110.97,39.2685981 L110.97,36.2809346 L124.649215,36.2809346 Z" id="Path"></path>
                    <path d="M157.658603,34.425 C160.550727,34.425 163.24131,36.1156844 165.730433,39.4971039 C168.219556,42.8785235 170.110076,47.6822141 171.40205,53.9083199 C172.694023,60.1344257 173.34,66.9508358 173.34,74.3577548 C173.34,85.0387466 172.142868,93.9752214 169.748569,101.167447 C166.856445,109.862526 162.862055,114.21 157.765279,114.21 C152.763327,114.21 148.911171,110.238233 146.208694,102.294581 C143.506218,94.350929 142.155,85.1460917 142.155,74.6797931 C142.155,63.8914546 143.53585,54.4853454 146.297591,46.4611831 C149.059333,38.4370209 152.846299,34.425 157.658603,34.425 Z M157.800838,40.1411806 C156.591835,40.1411806 155.554716,41.1743767 154.68945,43.2407997 C153.824183,45.3072227 153.255249,49.3863343 152.982631,55.4782568 C152.710013,61.5701793 152.573706,70.0370195 152.573706,80.8790313 C152.573706,86.6220772 152.739645,91.9893292 153.071528,96.9809485 C153.332293,100.791755 153.889374,103.690071 154.742788,105.675984 C155.596202,107.661897 156.56813,108.654839 157.658603,108.654839 C158.72537,108.654839 159.614329,107.983932 160.325507,106.642099 C161.250039,104.817206 161.866384,102.267761 162.174561,98.9936882 C162.64868,93.8947222 162.885735,83.5895982 162.885735,68.0780071 C162.885735,58.9535417 162.660532,52.6872749 162.21012,49.2790187 C161.759707,45.8707625 161.095951,43.3884084 160.218831,41.8318819 C159.602477,40.7047421 158.796487,40.1411806 157.800838,40.1411806 Z" id="Combined-Shape"></path>
                    <path d="M186.484806,0 C188.018309,0 189.315868,1.21258496 190.377524,3.63779126 C191.43918,6.06299756 191.97,8.98119654 191.97,12.3924757 C191.97,15.8037549 191.433282,18.7086288 190.35983,21.1071845 C189.286378,23.5057401 187.994716,24.705 186.484806,24.705 C184.974895,24.705 183.689132,23.5057401 182.627476,21.1071845 C181.56582,18.7086288 181.035,15.8037549 181.035,12.3924757 C181.035,8.98119654 181.56582,6.06299756 182.627476,3.63779126 C183.689132,1.21258496 184.974895,0 186.484806,0 Z" id="Path"></path>
                    <path d="M191.222554,36.45 L191.222554,96.1500321 C191.222554,101.46747 191.493086,104.864672 192.034158,106.341738 C192.57523,107.818804 193.633834,108.664748 195.21,108.879594 L195.21,111.78 L177.39,111.78 L177.39,108.879594 C178.848542,108.772171 179.93067,107.805378 180.636416,105.979187 C181.106913,104.743823 181.342158,101.46747 181.342158,96.1500321 L181.342158,52.1605348 C181.342158,46.8430964 181.071626,43.4458951 180.530554,41.9688289 C179.989482,40.4917627 178.942641,39.6458193 177.39,39.4309733 L177.39,36.45 L191.222554,36.45 Z" id="Path"></path>
                    <path d="M211.99024,8.91 L211.99024,36.5046279 L219.915,36.5046279 L219.915,44.4925465 L211.99024,44.4925465 L211.99024,91.0483953 C211.99024,95.4054636 212.079482,98.2159995 212.257969,99.4800872 C212.436455,100.744175 212.751777,101.766188 213.203942,102.546157 C213.656108,103.326126 214.07257,103.716105 214.453341,103.716105 C216.000224,103.716105 217.463791,101.053492 218.844087,95.728186 L219.915,97.5032791 C217.987346,107.831145 214.85793,112.995 210.526659,112.995 C208.408619,112.995 206.617832,111.663694 205.154243,109.001041 C203.690654,106.338388 202.756589,103.366482 202.352019,100.085233 C202.114037,98.2563397 201.995048,93.307645 201.995048,85.239 L201.995048,44.4925465 L197.64,44.4925465 L197.64,41.6685349 C200.638573,36.8811389 203.190891,31.8517589 205.297031,26.5802442 C207.403172,21.3087295 209.241555,15.418707 210.812236,8.91 L211.99024,8.91 Z" id="Path"></path>
                </g>
                <rect id="Rectangle" fill="#000000" x="217.89" y="66.42" width="90.315" height="27.54"></rect>
                <g id="Group-3" transform="translate(0.000000, 89.100000)" stroke="#000000" stroke-width="0.5">
                    <path d="M46.0125879,0.323585251 L46.0125879,38.4372978 L44.6243555,38.4372978 C43.5802096,28.4898394 41.6343306,20.8671731 38.7866602,15.5690703 C35.9389897,10.2709674 32.7116782,7.62195573 29.1046289,7.62195573 C26.0908443,7.62195573 23.3262723,9.59519913 20.8108301,13.5417451 C18.2953878,17.4882911 16.4562949,22.6511608 15.2934961,29.0305091 C13.7984691,37.1939125 13.0509668,46.2762383 13.0509668,56.2777589 C13.0509668,66.1170928 13.5967621,75.0777802 14.6883691,83.1600902 C15.7799762,91.2424001 17.4885528,97.3513454 19.8141504,101.487109 C22.139748,105.622873 25.1534873,107.690724 28.855459,107.690724 C31.8929742,107.690724 34.6753438,106.177003 37.2026514,103.149516 C39.7299589,100.122029 42.3936774,94.9050975 45.1938867,87.498566 L45.1938867,96.9864476 C42.4885998,103.419858 39.6706348,108.082659 36.7399072,110.974991 C33.8091797,113.867323 30.3860938,115.313467 26.4705469,115.313467 C21.3210094,115.313467 16.7470073,112.961793 12.7484033,108.258375 C8.74979934,103.554958 5.66486926,96.7972746 3.49352051,87.985124 C1.32217176,79.1729734 0.236513672,69.7933095 0.236513672,59.8458512 C0.236513672,49.35777 1.44082292,39.4104609 3.84947754,30.0036252 C6.25813216,20.5967895 9.50917387,13.2984921 13.6027002,8.10851376 C17.6962265,2.91853547 22.0447914,0.323585251 26.6485254,0.323585251 C30.0419994,0.323585251 33.6252643,1.9994906 37.3984277,5.35135158 C39.5816418,7.29759344 40.9698603,8.27069977 41.563125,8.27069977 C42.3225038,8.27069977 42.9810177,7.63547758 43.5386865,6.36501415 C44.0963553,5.09455071 44.4582414,3.08076122 44.6243555,0.323585251 L46.0125879,0.323585251 Z" id="Path"></path>
                    <path d="M80.647207,72.171988 L62.3866113,72.171988 C62.6001866,82.2275709 63.7748331,90.174606 65.9105859,96.0133315 C67.5479965,100.5005 69.5176057,102.744051 71.8194727,102.744051 C73.2433079,102.744051 74.5366055,101.838521 75.6994043,100.027435 C76.8622031,98.2163491 78.1080402,94.959146 79.4369531,90.2557282 L80.647207,92.0397743 C78.8436824,100.419427 76.8503429,106.352672 74.6671289,109.839689 C72.4839149,113.326706 69.9566452,115.070188 67.0852441,115.070188 C62.149282,115.070188 58.4117705,110.745271 55.8725977,102.095307 C53.8317671,95.1212736 52.8113672,86.4714395 52.8113672,76.1455452 C52.8113672,63.4949731 54.3123043,53.4260257 57.3142236,45.9384007 C60.3161429,38.4507758 63.8341498,34.7070195 67.8683496,34.7070195 C71.238093,34.7070195 74.162844,37.8560997 76.6426904,44.1543546 C79.1225368,50.4526095 80.4573623,59.7917273 80.647207,72.171988 Z M71.8906641,66.7387566 C71.8906641,58.0347305 71.6830245,52.0609389 71.2677393,48.8172024 C70.852454,45.573466 70.2058052,43.1136694 69.3277734,41.4377389 C68.8294311,40.464618 68.1649846,39.9780649 67.3344141,39.9780649 C66.1004235,39.9780649 65.0918887,41.3566322 64.3087793,44.1138081 C62.9086746,48.9253505 62.2086328,55.520849 62.2086328,63.9005014 L62.2086328,66.7387566 L71.8906641,66.7387566 Z" id="Combined-Shape"></path>
                    <path d="M98.4094629,36.9776237 L98.4094629,46.7898773 C100.118065,42.5730199 101.755451,39.5050319 103.32167,37.5858212 C104.887889,35.6666105 106.572735,34.7070195 108.37626,34.7070195 C110.535743,34.7070195 112.327376,36.0720714 113.751211,38.8022163 C115.175046,41.5323611 116.124255,44.9247179 116.598867,48.9793884 C116.978557,52.0609381 117.168398,57.9806682 117.168398,66.7387566 L117.168398,96.2566105 C117.168398,102.095336 117.399768,105.73097 117.862515,107.16362 C118.325261,108.59627 119.292268,109.5018 120.763564,109.880235 L120.763564,112.799584 L103.926797,112.799584 L103.926797,109.880235 C105.184518,109.5018 106.086267,108.312447 106.63207,106.312143 C107.01176,104.960586 107.201602,101.608776 107.201602,96.2566105 L107.201602,62.5219203 C107.201602,56.3047588 107.094816,52.3853028 106.88124,50.7634346 C106.667665,49.1415663 106.305779,47.8846373 105.795571,46.9926098 C105.285364,46.1005823 104.721771,45.6545752 104.104775,45.6545752 C102.063945,45.6545752 100.165526,48.9793552 98.4094629,55.6290149 L98.4094629,96.2566105 C98.4094629,101.933149 98.6408326,105.528237 99.1035791,107.04198 C99.5663256,108.555724 100.426546,109.5018 101.684268,109.880235 L101.684268,112.799584 L84.8475,112.799584 L84.8475,109.880235 C86.2476047,109.555862 87.2442744,108.528694 87.8375391,106.798701 C88.240959,105.609331 88.442666,102.095336 88.442666,96.2566105 L88.442666,53.4395037 C88.442666,47.7089027 88.2112963,44.1408462 87.7485498,42.735227 C87.2858034,41.3296079 86.3187964,40.410563 84.8475,39.9780649 L84.8475,36.9776237 L98.4094629,36.9776237 Z" id="Path"></path>
                    <path d="M146.392471,34.8692055 L146.926406,60.7378742 L145.716152,60.7378742 C144.268587,53.0610313 142.767649,47.8170694 141.213296,45.0058312 C139.658942,42.1945929 138.110545,40.7889949 136.568057,40.7889949 C135.595103,40.7889949 134.764544,41.53234 134.076357,43.0190526 C133.38817,44.5057651 133.044082,46.2222165 133.044082,48.1684584 C133.044082,49.6281398 133.281384,51.0337378 133.755996,52.3852947 C134.515375,54.6018479 136.639231,58.3996657 140.127627,63.7788619 C143.616023,69.1580582 145.911923,73.7262518 147.015396,77.4835798 C148.118868,81.2409078 148.670596,85.4441866 148.670596,90.0935421 C148.670596,94.3103995 148.207856,98.4461014 147.282363,102.500772 C146.35687,106.555442 145.051708,109.663977 143.366836,111.826468 C141.681964,113.988959 139.819141,115.070188 137.778311,115.070188 C136.188361,115.070188 134.064505,113.934897 131.40668,111.664282 C130.694762,111.069597 130.208292,110.772258 129.947256,110.772258 C129.164146,110.772258 128.511565,112.123795 127.989492,114.826909 L126.814834,114.826909 L126.245303,87.579659 L127.455557,87.579659 C128.523433,94.7158791 129.988775,100.067964 131.851626,103.636074 C133.714477,107.204184 135.476447,108.988212 137.137588,108.988212 C138.276656,108.988212 139.208068,108.190806 139.931851,106.595969 C140.655634,105.001132 141.01752,103.068434 141.01752,100.797819 C141.01752,98.2028297 140.661566,95.959279 139.949648,94.0670994 C139.237731,92.1749198 137.647805,89.3096623 135.179824,85.4712408 C131.549044,79.7406398 129.199751,75.3616613 128.131875,72.334174 C126.565656,67.9010675 125.782559,63.0085051 125.782559,57.65634 C125.782559,51.8176144 126.66651,46.5331064 128.434438,41.8026575 C130.202367,37.0722085 132.7593,34.7070195 136.105312,34.7070195 C137.908837,34.7070195 139.653009,35.7071566 141.337881,37.7074607 C141.978607,38.5183948 142.500672,38.9238558 142.904092,38.9238558 C143.331242,38.9238558 143.675331,38.7211253 143.936367,38.3156582 C144.197404,37.9101912 144.612683,36.7613851 145.182217,34.8692055 L146.392471,34.8692055 Z" id="Path"></path>
                    <path d="M185.868105,36.9776237 L185.868105,96.3377036 C185.868105,102.122367 186.105408,105.73097 186.58002,107.16362 C187.054631,108.59627 188.015706,109.5018 189.463271,109.880235 L189.463271,112.799584 L175.901309,112.799584 L175.901309,102.662958 C174.311359,106.98794 172.721434,110.13702 171.131484,112.110293 C169.541535,114.083566 167.761768,115.070188 165.792129,115.070188 C163.917413,115.070188 162.250364,113.759197 160.790933,111.137177 C159.331501,108.515157 158.352629,105.447169 157.854287,101.933121 C157.355945,98.4190731 157.106777,92.2830971 157.106777,83.5250087 L157.106777,53.4395037 C157.106777,47.7089027 156.875408,44.1408462 156.412661,42.735227 C155.949915,41.3296079 154.982908,40.410563 153.511611,39.9780649 L153.511611,36.9776237 L167.073574,36.9776237 L167.073574,88.7960541 C167.073574,94.2022814 167.186293,97.6892458 167.411733,99.2570517 C167.637174,100.824858 167.993127,102.01421 168.479604,102.825144 C168.966082,103.636078 169.529675,104.041539 170.1704,104.041539 C171.024702,104.041539 171.795934,103.527955 172.484121,102.500772 C173.433345,101.095153 174.572396,98.256926 175.901309,93.9860064 L175.901309,53.4395037 C175.901309,47.7089027 175.669939,44.1408462 175.207192,42.735227 C174.744446,41.3296079 173.777439,40.410563 172.306143,39.9780649 L172.306143,36.9776237 L185.868105,36.9776237 Z" id="Path"></path>
                    <path d="M215.305752,34.8692055 L215.839687,60.7378742 L214.629434,60.7378742 C213.181868,53.0610313 211.680931,47.8170694 210.126577,45.0058312 C208.572224,42.1945929 207.023826,40.7889949 205.481338,40.7889949 C204.508384,40.7889949 203.677826,41.53234 202.989639,43.0190526 C202.301452,44.5057651 201.957363,46.2222165 201.957363,48.1684584 C201.957363,49.6281398 202.194666,51.0337378 202.669277,52.3852947 C203.428656,54.6018479 205.552512,58.3996657 209.040908,63.7788619 C212.529305,69.1580582 214.825204,73.7262518 215.928677,77.4835798 C217.032149,81.2409078 217.583877,85.4441866 217.583877,90.0935421 C217.583877,94.3103995 217.121137,98.4461014 216.195645,102.500772 C215.270152,106.555442 213.964989,109.663977 212.280117,111.826468 C210.595245,113.988959 208.732422,115.070188 206.691592,115.070188 C205.101642,115.070188 202.977787,113.934897 200.319961,111.664282 C199.608043,111.069597 199.121574,110.772258 198.860537,110.772258 C198.077428,110.772258 197.424846,112.123795 196.902773,114.826909 L195.728115,114.826909 L195.158584,87.579659 L196.368838,87.579659 C197.436714,94.7158791 198.902056,100.067964 200.764907,103.636074 C202.627758,107.204184 204.389728,108.988212 206.050869,108.988212 C207.189937,108.988212 208.121349,108.190806 208.845132,106.595969 C209.568915,105.001132 209.930801,103.068434 209.930801,100.797819 C209.930801,98.2028297 209.574847,95.959279 208.86293,94.0670994 C208.151012,92.1749198 206.561087,89.3096623 204.093105,85.4712408 C200.462326,79.7406398 198.113033,75.3616613 197.045156,72.334174 C195.478937,67.9010675 194.69584,63.0085051 194.69584,57.65634 C194.69584,51.8176144 195.579791,46.5331064 197.34772,41.8026575 C199.115648,37.0722085 201.672581,34.7070195 205.018594,34.7070195 C206.822118,34.7070195 208.56629,35.7071566 210.251162,37.7074607 C210.891888,38.5183948 211.413953,38.9238558 211.817373,38.9238558 C212.244524,38.9238558 212.588612,38.7211253 212.849648,38.3156582 C213.110685,37.9101912 213.525964,36.7613851 214.095498,34.8692055 L215.305752,34.8692055 Z" id="Path"></path>
                </g>
                <text id="DO-THE" stroke="#000000" stroke-width="0.5" font-family="HelveticaNeue-Bold, Helvetica Neue" font-size="19.44" font-weight="bold" fill="#FFFFFF">
                    <tspan x="225.99" y="86.635">DO THE</tspan>
                </text>
                <rect id="Rectangle-Copy" fill="#000000" x="181.44" y="133.245" width="55.89" height="27.54"></rect>
                <text id="2020" stroke="#000000" stroke-width="0.5" font-family="HelveticaNeue-Bold, Helvetica Neue" font-size="19.44" font-weight="bold" fill="#FFFFFF">
                    <tspan x="187.92" y="153.055">2020</tspan>
                </text>
                <text id=".COM" font-family="HelveticaNeue-Bold, Helvetica Neue" font-size="14.58" font-weight="bold" fill="#000000">
                    <tspan x="223.56" y="192.605">.COM</tspan>
                </text>
            </g>
        </g>
    </g>
</svg>