<?xml version="1.0" encoding="UTF-8"?>
<svg width="686px" height="456px" viewBox="0 0 686 456" version="1.1" xmlns="http://www.w3.org/2000/svg" xmlns:xlink="http://www.w3.org/1999/xlink">
    <!-- Generator: Sketch 52.6 (67491) - http://www.bohemiancoding.com/sketch -->
    <title>Group 4</title>
    <desc>Created with Sketch.</desc>
    <g id="Page-1" stroke="none" stroke-width="1" fill="none" fill-rule="evenodd">
        <g id="Group-4" transform="translate(0.000000, 1.000000)">
            <g id="Group-2">
                <g id="Group" transform="translate(134.100000, 0.000000)" fill="#32C2FF" stroke="#000000" stroke-width="0.9">
                    <path d="M0,248.4 L0,241.769469 L3.55783309,241.769469 C6.6676583,241.769469 9.05270034,240.664392 10.7130307,238.454204 C12.3733612,236.244015 13.5988247,233.227453 14.3894583,229.404425 C14.8638384,226.895563 15.1010249,219.369089 15.1010249,206.824779 L15.1010249,46.9752212 C15.1010249,34.5503804 14.8111303,26.7849713 14.2313324,23.6787611 C13.6515344,20.5725508 12.478779,17.8546577 10.7130307,15.525 C8.94728253,13.1953423 6.5622405,12.030531 3.55783309,12.030531 L0,12.030531 L0,5.4 L47.9912152,5.4 C60.7994784,5.4 71.1039141,9.34243845 78.9048316,17.2274336 C88.4451429,26.9044732 95.6793311,41.5392826 100.607613,61.1323009 C105.535896,80.7253192 108,102.886602 108,127.616814 C108,144.70097 106.787713,160.440857 104.363104,174.836947 C101.938494,189.233037 98.8023618,201.120086 94.954612,210.498451 C91.1068622,219.876817 86.6662038,227.40329 81.6325037,233.078097 C76.5988035,238.752904 70.4451315,243.143347 63.1713031,246.249558 C59.9560601,247.683193 54.8960814,248.4 47.9912152,248.4 L0,248.4 Z M40.875549,19.1986726 L40.875549,208.796018 C40.875549,218.831466 41.0863815,224.984059 41.5080527,227.253982 C41.9297239,229.523905 42.6412834,231.256189 43.6427526,232.450885 C45.0658929,234.242929 47.1215093,235.138938 49.8096633,235.138938 C58.6120499,235.138938 65.3323341,228.329272 69.9707174,214.709735 C76.2957857,196.311412 79.4582723,167.758601 79.4582723,129.050442 C79.4582723,97.8688706 77.2972398,72.9598277 72.9751098,54.3225664 C69.5490312,39.7472723 65.1479039,29.8314422 59.7715959,24.5747788 C55.976555,20.8712204 49.6779357,19.0792029 40.875549,19.1986726 Z" id="Combined-Shape"></path>
                    <path d="M183.6,159.156509 L142.861765,159.156509 C143.338238,181.341483 145.9588,198.874507 150.723529,211.756105 C154.376489,221.655852 158.770563,226.605651 163.905882,226.605651 C167.082369,226.605651 169.967634,224.60784 172.561765,220.612159 C175.155895,216.616479 177.935279,209.430324 180.9,199.053481 L183.6,202.989506 C179.57645,221.476984 175.129436,234.567116 170.258824,242.260293 C165.388211,249.953469 159.750032,253.8 153.344118,253.8 C142.332298,253.8 133.994146,244.258219 128.329412,225.174369 C123.776448,209.788016 121.5,190.704453 121.5,167.923108 C121.5,140.012979 124.848496,117.798519 131.545588,101.279062 C138.242681,84.7596046 146.091131,76.5 155.091176,76.5 C162.608861,76.5 169.133796,83.4476096 174.666176,97.3430373 C180.198557,111.238465 183.176468,131.842749 183.6,159.156509 Z M164.064706,147.169526 C164.064706,127.966402 163.601475,114.786817 162.675,107.630373 C161.748525,100.47393 160.305892,95.0470417 158.347059,91.3495459 C157.235289,89.2026129 155.75295,88.1291625 153.9,88.1291625 C151.147045,88.1291625 148.897068,91.1706053 147.15,97.2535822 C144.026455,107.868973 142.464706,122.42019 142.464706,140.907669 L142.464706,147.169526 L164.064706,147.169526 Z" id="Combined-Shape"></path>
                    <path d="M221.789423,19.8 L221.789423,81.1213953 L239.4,81.1213953 L239.4,98.8723256 L221.789423,98.8723256 L221.789423,202.329767 C221.789423,212.012141 221.987738,218.257777 222.384375,221.06686 C222.781012,223.875944 223.481726,226.147084 224.486538,227.880349 C225.491351,229.613613 226.416823,230.480233 227.262981,230.480233 C230.700498,230.480233 233.952869,224.563315 237.020192,212.729302 L239.4,216.673953 C235.116325,239.624766 228.162067,251.1 218.537019,251.1 C213.830265,251.1 209.850737,248.141541 206.598317,242.224535 C203.345897,236.307529 201.270197,229.703292 200.371154,222.411628 C199.842305,218.347422 199.577885,207.350322 199.577885,189.42 L199.577885,98.8723256 L189.9,98.8723256 L189.9,92.5967442 C196.563495,81.9580863 202.235313,70.7816865 206.915625,59.0672093 C211.595937,47.3527321 215.681233,34.2637932 219.171635,19.8 L221.789423,19.8 Z" id="Path"></path>
                    <path d="M276.998257,80.6242991 L276.998257,118.665421 C281.93203,101.319539 286.255648,89.8056359 289.96924,84.1233645 C293.682833,78.4410931 297.263744,75.6 300.71208,75.6 C303.682954,75.6 306.056965,77.6635308 307.834184,81.7906542 C309.611404,85.9177776 310.5,91.749495 310.5,99.2859813 C310.5,107.300975 309.637929,113.521473 307.913761,117.947664 C306.189593,122.373854 304.10736,124.586916 301.666999,124.586916 C298.855279,124.586916 296.414954,122.553291 294.345953,118.485981 C292.276951,114.418671 291.056789,112.145797 290.68543,111.66729 C290.154916,110.949529 289.544835,110.590654 288.855168,110.590654 C287.31668,110.590654 285.85779,111.906529 284.478456,114.538318 C282.303352,118.605628 280.658785,124.407439 279.544707,131.943925 C277.847065,143.547722 276.998257,156.347594 276.998257,170.343925 L276.998257,208.923364 L277.077833,218.971963 C277.077833,225.790688 277.26351,230.157 277.634869,232.071028 C278.271485,235.300951 279.213132,237.663544 280.459838,239.158879 C281.706544,240.654213 283.815303,241.581307 286.786177,241.940187 L286.786177,248.4 L246.6,248.4 L246.6,241.940187 C249.836131,241.342053 252.024465,239.338335 253.165068,235.928972 C254.305672,232.519609 254.875965,223.51783 254.875965,208.923364 L254.875965,116.153271 C254.875965,106.58313 254.663763,100.482256 254.239352,97.8504673 C253.708839,94.5009178 252.939607,92.0486059 251.931631,90.4934579 C250.923656,88.93831 249.146464,87.8616852 246.6,87.2635514 L246.6,80.6242991 L276.998257,80.6242991 Z" id="Path"></path>
                    <path d="M350.352452,76.5 C356.779394,76.5 362.758467,80.2570765 368.289852,87.7713421 C373.821236,95.2856077 378.022392,105.960476 380.893444,119.796266 C383.764496,133.632057 385.2,148.779635 385.2,165.239455 C385.2,188.974993 382.539707,208.833825 377.219042,224.816549 C370.7921,244.138946 361.915678,253.8 350.58951,253.8 C339.474061,253.8 330.913713,244.973852 324.90821,227.321292 C318.902707,209.668731 315.9,189.213537 315.9,165.955096 C315.9,141.98101 318.968555,121.078545 325.105758,103.247074 C331.242961,85.4156021 339.658441,76.5 350.352452,76.5 Z M350.668529,89.2026236 C347.981857,89.2026236 345.677148,91.4986148 343.754333,96.090666 C341.831518,100.682717 340.567221,109.74741 339.961403,123.285015 C339.355584,136.822621 339.05268,155.637821 339.05268,179.731181 C339.05268,192.493505 339.421433,204.420732 340.158951,215.513219 C340.738429,223.981677 341.976387,230.42238 343.872862,234.83552 C345.769337,239.24866 347.929178,241.455197 350.352452,241.455197 C352.723045,241.455197 354.69851,239.964293 356.278905,236.982442 C358.33342,232.927124 359.703075,227.261691 360.387913,219.985974 C361.44151,208.654938 361.968301,185.754663 361.968301,151.28446 C361.968301,131.00787 361.46785,117.082833 360.466933,109.50893 C359.466016,101.935028 357.991002,96.4186853 356.041847,92.9597376 C354.672171,90.4549824 352.881083,89.2026236 350.668529,89.2026236 Z" id="Combined-Shape"></path>
                    <path d="M414.41068,0 C417.818464,0 420.70193,2.69463325 423.061165,8.08398058 C425.4204,13.4733279 426.6,19.9582145 426.6,27.538835 C426.6,35.1194554 425.407293,41.5747306 423.021845,46.9048544 C420.636396,52.2349781 417.766036,54.9 414.41068,54.9 C411.055323,54.9 408.19807,52.2349781 405.838835,46.9048544 C403.4796,41.5747306 402.3,35.1194554 402.3,27.538835 C402.3,19.9582145 403.4796,13.4733279 405.838835,8.08398058 C408.19807,2.69463325 411.055323,0 414.41068,0 Z" id="Path"></path>
                    <path d="M424.93901,81 L424.93901,213.666738 C424.93901,225.483268 425.540192,233.032604 426.742574,236.314973 C427.944957,239.597343 430.297408,241.477217 433.8,241.954652 L433.8,248.4 L394.2,248.4 L394.2,241.954652 C397.441204,241.715935 399.845933,239.567507 401.414257,235.509305 C402.459807,232.76405 402.982574,225.483268 402.982574,213.666738 L402.982574,115.912299 C402.982574,104.09577 402.381392,96.5464335 401.17901,93.2640642 C399.976628,89.9816948 397.650314,88.1018206 394.2,87.624385 L394.2,81 L424.93901,81 Z" id="Path"></path>
                    <path d="M471.089423,19.8 L471.089423,81.1213953 L488.7,81.1213953 L488.7,98.8723256 L471.089423,98.8723256 L471.089423,202.329767 C471.089423,212.012141 471.287738,218.257777 471.684375,221.06686 C472.081012,223.875944 472.781726,226.147084 473.786538,227.880349 C474.791351,229.613613 475.716823,230.480233 476.562981,230.480233 C480.000498,230.480233 483.252869,224.563315 486.320192,212.729302 L488.7,216.673953 C484.416325,239.624766 477.462067,251.1 467.837019,251.1 C463.130265,251.1 459.150737,248.141541 455.898317,242.224535 C452.645897,236.307529 450.570197,229.703292 449.671154,222.411628 C449.142305,218.347422 448.877885,207.350322 448.877885,189.42 L448.877885,98.8723256 L439.2,98.8723256 L439.2,92.5967442 C445.863495,81.9580863 451.535313,70.7816865 456.215625,59.0672093 C460.895937,47.3527321 464.981233,34.2637932 468.471635,19.8 L471.089423,19.8 Z" id="Path"></path>
                </g>
                <rect id="Rectangle" stroke="#000000" stroke-width="0.9" fill="#FEE21E" x="484.2" y="147.6" width="200.7" height="61.2"></rect>
                <g id="Group-3" transform="translate(0.000000, 198.000000)" fill="#EE471A" stroke="#000000" stroke-width="0.9">
                    <path d="M102.250195,0.719078336 L102.250195,85.4162172 L99.1652344,85.4162172 C96.8449103,63.3107541 92.5207348,46.3714958 86.1925781,34.5979339 C79.8644215,22.824372 72.6926182,16.9376794 64.6769531,16.9376794 C57.979654,16.9376794 51.8361608,21.3226647 46.2462891,30.0927669 C40.6564174,38.8628691 36.5695442,50.3359129 33.9855469,64.5122425 C30.6632646,82.6531389 29.0021484,102.836085 29.0021484,125.061686 C29.0021484,146.926873 30.2150269,166.839512 32.6408203,184.8002 C35.0666137,202.760889 38.8634507,216.336323 44.0314453,225.52691 C49.1994399,234.717496 55.8966386,239.312721 64.1232422,239.312721 C70.8732759,239.312721 77.0563196,235.948896 82.6725586,229.221147 C88.2887976,222.493397 94.208172,210.900217 100.430859,194.441258 L100.430859,215.525439 C94.4191106,229.821907 88.1569662,240.183687 81.6442383,246.611091 C75.1315104,253.038495 67.5246529,256.252148 58.8234375,256.252148 C47.3800209,256.252148 37.2155718,251.026207 28.3297852,240.574167 C19.4439985,230.122128 12.5885983,215.105055 7.76337891,195.522498 C2.93815947,175.939941 0.525585938,155.096243 0.525585938,132.99078 C0.525585938,109.683933 3.20182871,87.5788019 8.55439453,66.6747227 C13.9069604,45.7706434 21.1314975,29.5522046 30.2282227,18.0189195 C39.3249478,6.48563438 48.9884254,0.719078336 59.2189453,0.719078336 C66.7599986,0.719078336 74.7228096,4.44331245 83.1076172,11.8918924 C87.9592039,16.2168743 91.044134,18.3793328 92.3625,18.3793328 C94.0500084,18.3793328 95.5133727,16.967728 96.7526367,14.1444759 C97.9919007,11.3212238 98.7960919,6.84613604 99.1652344,0.719078336 L102.250195,0.719078336 Z" id="Path"></path>
                    <path d="M179.216016,160.382195 L138.636914,160.382195 C139.111526,182.727935 141.721851,200.388013 146.467969,213.362959 C150.106659,223.334445 154.483568,228.320113 159.598828,228.320113 C162.762906,228.320113 165.636901,226.307825 168.220898,222.28319 C170.804896,218.258554 173.573423,211.020324 176.526563,200.568285 L179.216016,204.532832 C175.208183,223.154282 170.77854,236.339272 165.926953,244.088198 C161.075366,251.837124 155.459212,255.711528 149.07832,255.711528 C138.109515,255.711528 129.803934,246.100602 124.161328,226.87846 C119.626149,211.380608 117.358594,192.158755 117.358594,169.212323 C117.358594,141.09994 120.69401,118.724501 127.364941,102.085335 C134.035873,85.4461685 141.853666,77.12671 150.818555,77.12671 C158.306873,77.12671 164.80632,84.1246661 170.31709,98.1207881 C175.82786,112.11691 178.794139,132.870505 179.216016,160.382195 Z M159.757031,148.308348 C159.757031,128.966068 159.29561,115.690975 158.372754,108.482672 C157.449898,101.274369 156.0129,95.8081543 154.061719,92.0838643 C152.954291,89.9213734 151.477744,88.8401441 149.632031,88.8401441 C146.88983,88.8401441 144.648642,91.903627 142.908398,98.0306847 C139.797055,108.723001 138.241406,123.379664 138.241406,142.001114 L138.241406,148.308348 L159.757031,148.308348 Z" id="Combined-Shape"></path>
                    <path d="M218.687695,82.172497 L218.687695,103.977505 C222.484589,94.606711 226.123225,87.7889598 229.603711,83.5240471 C233.084197,79.2591344 236.8283,77.12671 240.836133,77.12671 C245.634985,77.12671 249.61639,80.1601588 252.780469,86.2271473 C255.944547,92.2941358 258.053901,99.8327065 259.108594,108.843085 C259.952348,115.690973 260.374219,128.845929 260.374219,148.308348 L260.374219,213.903579 C260.374219,226.878525 260.888374,234.95771 261.916699,238.141377 C262.945025,241.325044 265.093929,243.337332 268.363477,244.178301 L268.363477,250.665741 L230.948438,250.665741 L230.948438,244.178301 C233.743373,243.337332 235.74726,240.694327 236.960156,236.249207 C237.80391,233.245747 238.225781,225.797279 238.225781,213.903579 L238.225781,138.937601 C238.225781,125.121686 237.988479,116.411784 237.513867,112.807632 C237.039255,109.203481 236.235064,106.410305 235.10127,104.428022 C233.967475,102.445738 232.715046,101.454612 231.343945,101.454612 C226.808766,101.454612 222.590059,108.843012 218.687695,123.620033 L218.687695,213.903579 C218.687695,226.51811 219.20185,234.507192 220.230176,237.871067 C221.258501,241.234942 223.170103,243.337332 225.965039,244.178301 L225.965039,250.665741 L188.55,250.665741 L188.55,244.178301 C191.661344,243.457471 193.876165,241.174876 195.194531,237.330447 C196.09102,234.687403 196.539258,226.878525 196.539258,213.903579 L196.539258,118.754453 C196.539258,106.019784 196.025103,98.0907692 194.996777,94.9671712 C193.968452,91.8435731 191.819548,89.8012512 188.55,88.8401441 L188.55,82.172497 L218.687695,82.172497 Z" id="Path"></path>
                    <path d="M325.316602,77.4871234 L326.503125,134.973054 L323.813672,134.973054 C320.596859,117.913403 317.261443,106.260154 313.807324,100.012958 C310.353205,93.7657621 306.912322,90.6422109 303.48457,90.6422109 C301.32245,90.6422109 299.476765,92.2940889 297.947461,95.5978946 C296.418156,98.9017002 295.653516,102.716037 295.653516,107.041019 C295.653516,110.284755 296.180854,113.408306 297.235547,116.411766 C298.923055,121.33744 303.642735,129.777035 311.394727,141.730804 C319.146718,153.684574 324.248718,163.836115 326.700879,172.185733 C329.15304,180.535351 330.379102,189.87597 330.379102,200.207871 C330.379102,209.578666 329.350792,218.769114 327.294141,227.779493 C325.23749,236.789872 322.337128,243.697726 318.592969,248.503261 C314.848809,253.308797 310.709202,255.711528 306.174023,255.711528 C302.640803,255.711528 297.921123,253.18866 292.014844,248.142848 C290.432805,246.821326 289.351761,246.160574 288.77168,246.160574 C287.031437,246.160574 285.581256,249.163989 284.421094,255.170908 L281.810742,255.170908 L280.545117,194.621464 L283.23457,194.621464 C285.607629,210.479731 288.863944,222.373253 293.003613,230.302387 C297.143282,238.23152 301.058771,242.196028 304.750195,242.196028 C307.281458,242.196028 309.351261,240.424013 310.959668,236.87993 C312.568074,233.335848 313.372266,229.040965 313.372266,223.995153 C313.372266,218.22851 312.581258,213.242842 310.999219,209.037999 C309.41718,204.833155 305.884012,198.465916 300.399609,189.936091 C292.33121,177.201422 287.110559,167.470358 284.7375,160.742609 C281.257014,150.891261 279.516797,140.0189 279.516797,128.1252 C279.516797,115.150254 281.481133,103.406903 285.409863,92.8947944 C289.338594,82.3826856 295.020666,77.12671 302.45625,77.12671 C306.464083,77.12671 310.34002,79.3492368 314.08418,83.7943571 C315.508015,85.5964329 316.66816,86.4974573 317.564648,86.4974573 C318.513872,86.4974573 319.278513,86.0469451 319.858594,85.1459072 C320.438675,84.2448693 321.361517,81.6919669 322.627148,77.4871234 L325.316602,77.4871234 Z" id="Path"></path>
                    <path d="M413.040234,82.172497 L413.040234,214.083786 C413.040234,226.938593 413.567573,234.95771 414.622266,238.141377 C415.676958,241.325044 417.812679,243.337332 421.029492,244.178301 L421.029492,250.665741 L390.891797,250.665741 L390.891797,228.139907 C387.358576,237.750978 383.825408,244.748934 380.292188,249.133985 C376.758967,253.519036 372.803928,255.711528 368.426953,255.711528 C364.260917,255.711528 360.556364,252.798216 357.313184,246.971504 C354.070003,241.144793 351.894732,234.327042 350.787305,226.518046 C349.679877,218.709051 349.126172,205.073549 349.126172,185.61113 L349.126172,118.754453 C349.126172,106.019784 348.612017,98.0907692 347.583691,94.9671712 C346.555366,91.8435731 344.406462,89.8012512 341.136914,88.8401441 L341.136914,82.172497 L371.274609,82.172497 L371.274609,197.324565 C371.274609,209.338403 371.525095,217.087213 372.026074,220.571226 C372.527053,224.055239 373.318061,226.698244 374.399121,228.50032 C375.480181,230.302396 376.73261,231.20342 378.156445,231.20342 C380.054892,231.20342 381.768742,230.062123 383.298047,227.779493 C385.407432,224.655895 387.938657,218.348725 390.891797,208.857792 L390.891797,118.754453 C390.891797,106.019784 390.377642,98.0907692 389.349316,94.9671712 C388.320991,91.8435731 386.172087,89.8012512 382.902539,88.8401441 L382.902539,82.172497 L413.040234,82.172497 Z" id="Path"></path>
                    <path d="M478.457227,77.4871234 L479.64375,134.973054 L476.954297,134.973054 C473.737484,117.913403 470.402068,106.260154 466.947949,100.012958 C463.49383,93.7657621 460.052947,90.6422109 456.625195,90.6422109 C454.463075,90.6422109 452.61739,92.2940889 451.088086,95.5978946 C449.558781,98.9017002 448.794141,102.716037 448.794141,107.041019 C448.794141,110.284755 449.321479,113.408306 450.376172,116.411766 C452.06368,121.33744 456.78336,129.777035 464.535352,141.730804 C472.287343,153.684574 477.389343,163.836115 479.841504,172.185733 C482.293665,180.535351 483.519727,189.87597 483.519727,200.207871 C483.519727,209.578666 482.491417,218.769114 480.434766,227.779493 C478.378115,236.789872 475.477753,243.697726 471.733594,248.503261 C467.989434,253.308797 463.849827,255.711528 459.314648,255.711528 C455.781428,255.711528 451.061748,253.18866 445.155469,248.142848 C443.57343,246.821326 442.492386,246.160574 441.912305,246.160574 C440.172062,246.160574 438.721881,249.163989 437.561719,255.170908 L434.951367,255.170908 L433.685742,194.621464 L436.375195,194.621464 C438.748254,210.479731 442.004569,222.373253 446.144238,230.302387 C450.283907,238.23152 454.199396,242.196028 457.89082,242.196028 C460.422083,242.196028 462.491886,240.424013 464.100293,236.87993 C465.708699,233.335848 466.512891,229.040965 466.512891,223.995153 C466.512891,218.22851 465.721883,213.242842 464.139844,209.037999 C462.557805,204.833155 459.024637,198.465916 453.540234,189.936091 C445.471835,177.201422 440.251184,167.470358 437.878125,160.742609 C434.397639,150.891261 432.657422,140.0189 432.657422,128.1252 C432.657422,115.150254 434.621758,103.406903 438.550488,92.8947944 C442.479219,82.3826856 448.161291,77.12671 455.596875,77.12671 C459.604708,77.12671 463.480645,79.3492368 467.224805,83.7943571 C468.64864,85.5964329 469.808785,86.4974573 470.705273,86.4974573 C471.654497,86.4974573 472.419138,86.0469451 472.999219,85.1459072 C473.5793,84.2448693 474.502142,81.6919669 475.767773,77.4871234 L478.457227,77.4871234 Z" id="Path"></path>
                </g>
                <text id="DO-THE" stroke="#000000" stroke-width="0.675" font-family="HelveticaNeue-Bold, Helvetica Neue" font-size="43.2" font-weight="bold" fill="#FA7921">
                    <tspan x="502.2" y="192.3">DO THE</tspan>
                </text>
                <rect id="Rectangle-Copy" stroke="#000000" stroke-width="0.9" fill="#9BD41D" x="403.2" y="296.1" width="124.2" height="61.2"></rect>
                <text id="2020" stroke="#000000" stroke-width="0.675" font-family="HelveticaNeue-Bold, Helvetica Neue" font-size="43.2" font-weight="bold" fill="#FEE21E">
                    <tspan x="417.6" y="339.9">2020</tspan>
                </text>
                <text id=".COM" font-family="HelveticaNeue-Bold, Helvetica Neue" font-size="32.4" font-weight="bold" fill="#000000">
                    <tspan x="496.8" y="428.9">.COM</tspan>
                </text>
            </g>
        </g>
    </g>
</svg>