<?xml version="1.0" encoding="UTF-8"?>
<svg width="508px" height="34px" viewBox="0 0 508 34" version="1.1" xmlns="http://www.w3.org/2000/svg" xmlns:xlink="http://www.w3.org/1999/xlink">
    <!-- Generator: Sketch 52 (66869) - http://www.bohemiancoding.com/sketch -->
    <title>Group 2 Copy</title>
    <desc>Created with Sketch.</desc>
    <g id="Illustrations" stroke="none" stroke-width="1" fill="none" fill-rule="evenodd">
        <g id="Artboard" transform="translate(-153.000000, -324.000000)" fill="#963636">
            <g id="Group-2-Copy" transform="translate(152.000000, 324.000000)">
                <text id="(4.68)" font-family="IBMPlexMono-BoldItalic, IBM Plex Mono" font-size="9" font-style="italic" font-weight="bold">
                    <tspan x="0.3" y="19">(4.68)</tspan>
                </text>
                <text id="v-=-arccoss" font-family="IBMPlexMono-BoldItalic, IBM Plex Mono" font-size="9" font-style="italic" font-weight="bold">
                    <tspan x="83" y="19">v</tspan>
                    <tspan x="88.4" y="19" font-family="IBMPlexMono-Bold, IBM Plex Mono"> = arccoss</tspan>
                </text>
                <text id="flight-path-angle-at" font-family="IBMPlexMono-Bold, IBM Plex Mono" font-size="9" font-weight="bold">
                    <tspan x="336" y="19">flight-path angle at second burn</tspan>
                </text>
                <path d="M148,16.541 C148,9.35726949 149.388708,3.09453007 151.040539,0 L153.204,0 C151.391371,3.13136971 149.812629,8.50995768 149.812629,14.6621782 L149.812629,18.4198218 C149.812629,24.5720423 151.391371,29.9506303 153.204,33.082 L151.040539,33.082 C149.388708,29.9874699 148,23.7247305 148,16.541 Z" id="("></path>
                <path d="M200,16.541 C200,9.35726949 201.388708,3.09453007 203.040539,0 L205.204,0 C203.391371,3.13136971 201.812629,8.50995768 201.812629,14.6621782 L201.812629,18.4198218 C201.812629,24.5720423 203.391371,29.9506303 205.204,33.082 L203.040539,33.082 C201.388708,29.9874699 200,23.7247305 200,16.541 Z" id="(-copy" transform="translate(202.602000, 16.541000) rotate(-180.000000) translate(-202.602000, -16.541000) "></path>
                <text id="—————————" font-family="IBMPlexMono-Bold, IBM Plex Mono" font-size="9" font-weight="bold" letter-spacing="-0.200000003">
                    <tspan x="153" y="20">—————————</tspan>
                </text>
                <text id="esinv" font-family="IBMPlexMono-Bold, IBM Plex Mono" font-size="9" font-weight="bold">
                    <tspan x="162" y="14">esin</tspan>
                    <tspan x="183.6" y="14" font-family="IBMPlexMono-BoldItalic, IBM Plex Mono" font-style="italic">v</tspan>
                </text>
                <text id="1+ecosv" font-family="IBMPlexMono-Bold, IBM Plex Mono" font-size="9" font-weight="bold">
                    <tspan x="157" y="27">1+ecos</tspan>
                    <tspan x="189.4" y="27" font-family="IBMPlexMono-BoldItalic, IBM Plex Mono" font-style="italic">v</tspan>
                </text>
            </g>
        </g>
    </g>
</svg>