<?xml version="1.0" encoding="UTF-8"?>
<svg width="448px" height="18px" viewBox="0 0 448 18" version="1.1" xmlns="http://www.w3.org/2000/svg" xmlns:xlink="http://www.w3.org/1999/xlink">
    <!-- Generator: Sketch 52 (66869) - http://www.bohemiancoding.com/sketch -->
    <title>Group 2 Copy 2</title>
    <desc>Created with Sketch.</desc>
    <g id="Illustrations" stroke="none" stroke-width="1" fill="none" fill-rule="evenodd">
        <g id="Artboard" transform="translate(-153.000000, -371.000000)">
            <g id="Group-2-Copy-2" transform="translate(152.000000, 371.500000)">
                <text id="(4.69)" font-family="IBMPlexMono-BoldItalic, IBM Plex Mono" font-size="9" font-style="italic" font-weight="bold" fill="#963636">
                    <tspan x="0.3" y="13">(4.69)</tspan>
                </text>
                <path d="M83.324,13 L83.324,11.857 L84.746,6.718 L86.654,6.718 L88.076,11.857 L88.076,13 L83.324,13 Z M86.663,11.893 L85.727,7.996 L85.655,7.996 L84.719,11.893 L86.663,11.893 Z M92.054,13 L90.146,13 L88.481,6.718 L89.984,6.718 L90.722,9.913 L91.091,11.722 L91.163,11.722 L91.541,9.913 L92.288,6.718 L93.719,6.718 L92.054,13 Z M109.442,9.751 L105.158,9.751 L105.158,8.689 L109.442,8.689 L109.442,9.751 Z M109.442,11.821 L105.158,11.821 L105.158,10.759 L109.442,10.759 L109.442,11.821 Z M129.854,13 L127.946,13 L126.281,6.718 L127.784,6.718 L128.522,9.913 L128.891,11.722 L128.963,11.722 L129.341,9.913 L130.088,6.718 L131.519,6.718 L129.854,13 Z M152.795,11.866 L152.795,13 L148.277,13 L148.277,11.767 L150.257,10.12 C150.941,9.535 151.22,9.148 151.22,8.671 L151.22,8.581 C151.22,8.059 150.878,7.78 150.356,7.78 C149.753,7.78 149.456,8.185 149.321,8.662 L148.142,8.212 C148.421,7.348 149.159,6.61 150.491,6.61 C151.868,6.61 152.66,7.411 152.66,8.5 C152.66,9.544 151.913,10.219 150.968,10.939 L149.771,11.866 L152.795,11.866 Z M161.876,12.442 L160.724,12.442 L160.724,10.786 L159.158,10.786 L159.158,9.724 L160.724,9.724 L160.724,8.068 L161.876,8.068 L161.876,9.724 L163.442,9.724 L163.442,10.786 L161.876,10.786 L161.876,12.442 Z M173.054,13 L171.146,13 L169.481,6.718 L170.984,6.718 L171.722,9.913 L172.091,11.722 L172.163,11.722 L172.541,9.913 L173.288,6.718 L174.719,6.718 L173.054,13 Z M190.595,11.866 L190.595,13 L186.077,13 L186.077,11.767 L188.057,10.12 C188.741,9.535 189.02,9.148 189.02,8.671 L189.02,8.581 C189.02,8.059 188.678,7.78 188.156,7.78 C187.553,7.78 187.256,8.185 187.121,8.662 L185.942,8.212 C186.221,7.348 186.959,6.61 188.291,6.61 C189.668,6.61 190.46,7.411 190.46,8.5 C190.46,9.544 189.713,10.219 188.768,10.939 L187.571,11.866 L190.595,11.866 Z M201.26,14.728 L196.94,14.728 L196.94,13.639 L201.26,13.639 L201.26,14.728 Z M212.195,11.866 L212.195,13 L207.677,13 L207.677,11.767 L209.657,10.12 C210.341,9.535 210.62,9.148 210.62,8.671 L210.62,8.581 C210.62,8.059 210.278,7.78 209.756,7.78 C209.153,7.78 208.856,8.185 208.721,8.662 L207.542,8.212 C207.821,7.348 208.559,6.61 209.891,6.61 C211.268,6.61 212.06,7.411 212.06,8.5 C212.06,9.544 211.313,10.219 210.368,10.939 L209.171,11.866 L212.195,11.866 Z M216.254,13 L214.346,13 L212.681,6.718 L214.184,6.718 L214.922,9.913 L215.291,11.722 L215.363,11.722 L215.741,9.913 L216.488,6.718 L217.919,6.718 L216.254,13 Z M237.854,13 L235.946,13 L234.281,6.718 L235.784,6.718 L236.522,9.913 L236.891,11.722 L236.963,11.722 L237.341,9.913 L238.088,6.718 L239.519,6.718 L237.854,13 Z M253.289,13.108 C251.822,13.108 250.94,12.181 250.94,10.678 C250.94,9.175 251.831,8.248 253.28,8.248 C254.297,8.248 254.891,8.707 255.215,9.382 L254.189,9.94 C254.027,9.58 253.775,9.31 253.28,9.31 C252.677,9.31 252.326,9.688 252.326,10.3 L252.326,11.056 C252.326,11.668 252.668,12.046 253.298,12.046 C253.811,12.046 254.081,11.776 254.279,11.398 L255.287,11.974 C254.954,12.649 254.324,13.108 253.289,13.108 Z M258.5,13.108 C257.051,13.108 256.169,12.181 256.169,10.678 C256.169,9.175 257.051,8.248 258.5,8.248 C259.949,8.248 260.831,9.175 260.831,10.678 C260.831,12.181 259.949,13.108 258.5,13.108 Z M258.5,12.118 C259.094,12.118 259.454,11.731 259.454,11.047 L259.454,10.309 C259.454,9.625 259.094,9.238 258.5,9.238 C257.906,9.238 257.546,9.625 257.546,10.309 L257.546,11.047 C257.546,11.731 257.906,12.118 258.5,12.118 Z M263.846,13.108 C262.82,13.108 262.019,12.775 261.641,12.235 L262.388,11.542 C262.748,11.938 263.234,12.172 263.855,12.172 C264.377,12.172 264.701,12.01 264.701,11.677 C264.701,11.416 264.485,11.335 264.125,11.281 L263.378,11.164 C262.55,11.038 261.893,10.687 261.893,9.805 C261.893,8.833 262.676,8.248 264.017,8.248 C264.926,8.248 265.565,8.509 265.952,8.959 L265.286,9.715 C265.016,9.418 264.575,9.184 263.972,9.184 C263.468,9.184 263.198,9.346 263.198,9.652 C263.198,9.922 263.414,10.003 263.774,10.057 L264.512,10.174 C265.349,10.3 266.006,10.651 266.006,11.533 C266.006,12.496 265.223,13.108 263.846,13.108 Z M268.942285,13 L268.942285,12.1606445 C268.40322,12.0903317 267.960842,11.8530294 267.615137,11.4487305 C267.19326,10.9565405 266.982324,10.3369178 266.982324,9.58984375 C266.982324,8.8427697 267.19326,8.22461182 267.615137,7.73535156 C267.960842,7.33398237 268.40322,7.09668005 268.942285,7.0234375 L268.942285,6.1796875 L269.658594,6.1796875 L269.658594,7.0234375 C270.194729,7.09668005 270.637108,7.33398237 270.985742,7.73535156 C271.407619,8.22461182 271.618555,8.8427697 271.618555,9.58984375 C271.618555,10.3369178 271.407619,10.9565405 270.985742,11.4487305 C270.637108,11.8530294 270.194729,12.0903317 269.658594,12.1606445 L269.658594,13 L268.942285,13 Z M268.256738,8.19238281 C267.998924,8.53222826 267.87002,8.99804392 267.87002,9.58984375 C267.87002,10.1845733 267.998924,10.6518538 268.256738,10.9916992 C268.43838,11.2348645 268.666893,11.3916012 268.942285,11.4619141 L268.942285,7.7265625 C268.666893,7.79687535 268.43838,7.95214724 268.256738,8.19238281 Z M270.344141,10.9916992 C270.601954,10.6518538 270.730859,10.1845733 270.730859,9.58984375 C270.730859,8.99804392 270.601954,8.53222826 270.344141,8.19238281 C270.159569,7.95214724 269.931056,7.79687535 269.658594,7.7265625 L269.658594,11.4619141 C269.931056,11.3916012 270.159569,11.2348645 270.344141,10.9916992 Z" id="∆V-=-V-2-+-V-2-_-2V" fill="#963636"></path>
                <text id="final-velocity-chang" font-family="IBMPlexMono-Bold, IBM Plex Mono" font-size="9" font-weight="bold" fill="#963636">
                    <tspan x="336" y="13">final velocity change</tspan>
                </text>
                <polyline id="Path-2" stroke="#963636" stroke-linejoin="bevel" points="113.433705 5.7670437 117.033581 5.7670437 119.548068 15.5601554 121.702929 0.771355581 274.154582 0.771355581"></polyline>
                <path d="M136.779,16.5 L135.06,16.5 C134.097,16.5 133.638,15.942 133.638,15.159 L133.638,12.891 L132.378,12.891 L132.378,11.856 L133.197,11.856 C133.593,11.856 133.746,11.721 133.746,11.307 L133.746,10.218 L134.97,10.218 L134.97,11.856 L136.779,11.856 L136.779,12.891 L134.97,12.891 L134.97,15.465 L136.779,15.465 L136.779,16.5 Z M139.011,16.5 L137.607,16.5 L139.344,14.142 L137.724,11.856 L139.245,11.856 L139.74,12.603 L140.118,13.206 L140.19,13.206 L140.577,12.603 L141.081,11.856 L142.476,11.856 L140.856,14.07 L142.593,16.5 L141.063,16.5 L140.478,15.627 L140.073,15.006 L140.001,15.006 L139.605,15.627 L139.011,16.5 Z M143.493,16.5 L143.493,10.218 L145.698,10.218 C146.922,10.218 147.606,10.866 147.606,11.892 C147.606,12.603 147.237,13.026 146.58,13.215 L146.58,13.269 C147.354,13.458 147.804,13.926 147.804,14.772 C147.804,15.825 147.093,16.5 145.905,16.5 L143.493,16.5 Z M144.807,15.555 L145.491,15.555 C146.13,15.555 146.427,15.375 146.427,14.799 L146.427,14.538 C146.427,13.971 146.13,13.782 145.491,13.782 L144.807,13.782 L144.807,15.555 Z M144.807,12.882 L145.32,12.882 C145.95,12.882 146.229,12.702 146.229,12.153 L146.229,11.883 C146.229,11.334 145.95,11.163 145.32,11.163 L144.807,11.163 L144.807,12.882 Z M175.839,16.5 L175.839,15.465 L177.207,15.465 L177.207,12.891 L175.749,12.891 L175.749,11.856 L177.207,11.856 L177.207,11.181 C177.207,10.398 177.657,9.84 178.629,9.84 L180.204,9.84 L180.204,10.875 L178.539,10.875 L178.539,11.856 L180.204,11.856 L180.204,12.891 L178.539,12.891 L178.539,15.465 L179.997,15.465 L179.997,16.5 L175.839,16.5 Z M181.131,16.5 L181.131,9.84 L182.463,9.84 L182.463,12.702 L182.526,12.702 C182.76,12.144 183.156,11.748 183.903,11.748 C184.929,11.748 185.649,12.495 185.649,14.178 C185.649,15.861 184.929,16.608 183.903,16.608 C183.156,16.608 182.76,16.212 182.526,15.654 L182.463,15.654 L182.463,16.5 L181.131,16.5 Z M183.327,15.573 C183.921,15.573 184.263,15.186 184.263,14.538 L184.263,13.818 C184.263,13.17 183.921,12.783 183.327,12.783 C182.859,12.783 182.463,13.008 182.463,13.494 L182.463,14.862 C182.463,15.348 182.859,15.573 183.327,15.573 Z M223.179,16.5 L221.46,16.5 C220.497,16.5 220.038,15.942 220.038,15.159 L220.038,12.891 L218.778,12.891 L218.778,11.856 L219.597,11.856 C219.993,11.856 220.146,11.721 220.146,11.307 L220.146,10.218 L221.37,10.218 L221.37,11.856 L223.179,11.856 L223.179,12.891 L221.37,12.891 L221.37,15.465 L223.179,15.465 L223.179,16.5 Z M225.411,16.5 L224.007,16.5 L225.744,14.142 L224.124,11.856 L225.645,11.856 L226.14,12.603 L226.518,13.206 L226.59,13.206 L226.977,12.603 L227.481,11.856 L228.876,11.856 L227.256,14.07 L228.993,16.5 L227.463,16.5 L226.878,15.627 L226.473,15.006 L226.401,15.006 L226.005,15.627 L225.411,16.5 Z M229.893,16.5 L229.893,10.218 L232.098,10.218 C233.322,10.218 234.006,10.866 234.006,11.892 C234.006,12.603 233.637,13.026 232.98,13.215 L232.98,13.269 C233.754,13.458 234.204,13.926 234.204,14.772 C234.204,15.825 233.493,16.5 232.305,16.5 L229.893,16.5 Z M231.207,15.555 L231.891,15.555 C232.53,15.555 232.827,15.375 232.827,14.799 L232.827,14.538 C232.827,13.971 232.53,13.782 231.891,13.782 L231.207,13.782 L231.207,15.555 Z M231.207,12.882 L231.72,12.882 C232.35,12.882 232.629,12.702 232.629,12.153 L232.629,11.883 C232.629,11.334 232.35,11.163 231.72,11.163 L231.207,11.163 L231.207,12.882 Z M240.639,16.5 L240.639,15.465 L242.007,15.465 L242.007,12.891 L240.549,12.891 L240.549,11.856 L242.007,11.856 L242.007,11.181 C242.007,10.398 242.457,9.84 243.429,9.84 L245.004,9.84 L245.004,10.875 L243.339,10.875 L243.339,11.856 L245.004,11.856 L245.004,12.891 L243.339,12.891 L243.339,15.465 L244.797,15.465 L244.797,16.5 L240.639,16.5 Z M246.093,16.5 L246.093,10.218 L248.298,10.218 C249.522,10.218 250.206,10.866 250.206,11.892 C250.206,12.603 249.837,13.026 249.18,13.215 L249.18,13.269 C249.954,13.458 250.404,13.926 250.404,14.772 C250.404,15.825 249.693,16.5 248.505,16.5 L246.093,16.5 Z M247.407,15.555 L248.091,15.555 C248.73,15.555 249.027,15.375 249.027,14.799 L249.027,14.538 C249.027,13.971 248.73,13.782 248.091,13.782 L247.407,13.782 L247.407,15.555 Z M247.407,12.882 L247.92,12.882 C248.55,12.882 248.829,12.702 248.829,12.153 L248.829,11.883 C248.829,11.334 248.55,11.163 247.92,11.163 L247.407,11.163 L247.407,12.882 Z" id="txB-fb-txB-fB" fill="#963636"></path>
                <text id="B" font-family="IBMPlexMono-Bold, IBM Plex Mono" font-size="9" font-weight="bold" fill="#963636">
                    <tspan x="95" y="16.5">B</tspan>
                </text>
            </g>
        </g>
    </g>
</svg>