<?xml version="1.0" encoding="UTF-8"?>
<svg width="36px" height="36px" viewBox="0 0 36 36" version="1.1" xmlns="http://www.w3.org/2000/svg" xmlns:xlink="http://www.w3.org/1999/xlink">
    <!-- Generator: Sketch 52 (66869) - http://www.bohemiancoding.com/sketch -->
    <title>Combined Shape</title>
    <desc>Created with Sketch.</desc>
    <g id="Illustrations" stroke="none" stroke-width="1" fill="none" fill-rule="evenodd">
        <path d="M0,0 L36,0 L36,36 L0,36 L0,0 Z M18.5,12 C19.6029412,12 20,11.4375 20,10.734375 L20,10.2890625 C20,9.5625 19.6029412,9 18.5,9 C17.3970588,9 17,9.5625 17,10.2890625 L17,10.734375 C17,11.4375 17.3970588,12 18.5,12 Z M13,28 L24,28 L24,26.0600775 L19.7882883,26.0600775 L19.7882883,15 L13,15 L13,16.9399225 L17.4842342,16.9399225 L17.4842342,26.0600775 L13,26.0600775 L13,28 Z" id="Combined-Shape" fill="#FFFFFF"></path>
    </g>
</svg>