<?xml version="1.0" encoding="UTF-8"?>
<svg width="36px" height="36px" viewBox="0 0 36 36" version="1.1" xmlns="http://www.w3.org/2000/svg" xmlns:xlink="http://www.w3.org/1999/xlink">
    <!-- Generator: Sketch 52 (66869) - http://www.bohemiancoding.com/sketch -->
    <title>Combined Shape</title>
    <desc>Created with Sketch.</desc>
    <g id="Illustrations" stroke="none" stroke-width="1" fill="none" fill-rule="evenodd">
        <path d="M0,0 L36,0 L36,36 L0,36 L0,0 Z M21.6711835,11.722025 C24.738506,13.0596927 26.8709677,16.0219131 26.8709677,19.4613093 C26.8709677,24.1551465 22.8993002,27.9602534 18,27.9602534 C13.1006998,27.9602534 9.12903226,24.1551465 9.12903226,19.4613093 C9.12903226,16.0219131 11.261494,13.0596927 14.3288165,11.722025 L13.1492707,10 C9.50662705,11.7174474 7,15.3089274 7,19.4613093 C7,25.2816675 11.9248678,30 18,30 C24.0751322,30 29,25.2816675 29,19.4613093 C29,15.3089274 26.493373,11.7174474 22.8507293,10 L21.6711835,11.722025 Z M17,8 L17,20 L19,20 L19,8 L17,8 Z" id="Combined-Shape" fill="#FFFFFF"></path>
    </g>
</svg>