<?xml version="1.0" encoding="UTF-8"?>
<svg width="54px" height="54px" viewBox="0 0 54 54" version="1.1" xmlns="http://www.w3.org/2000/svg" xmlns:xlink="http://www.w3.org/1999/xlink">
    <!-- Generator: Sketch 52 (66869) - http://www.bohemiancoding.com/sketch -->
    <title>-o-</title>
    <desc>Created with Sketch.</desc>
    <g id="Sketches" stroke="none" stroke-width="1" fill="none" fill-rule="evenodd">
        <g id="home" transform="translate(-934.000000, -434.000000)" fill="#FFFFFF">
            <path d="M944.656,461.138 L934,461.138 L934,457.718 L944.656,457.718 L944.656,461.138 Z M960.928,469.822 C955.6,469.822 952.324,466.042 952.324,460.102 C952.324,454.162 955.6,450.382 960.928,450.382 C966.256,450.382 969.532,454.162 969.532,460.102 C969.532,466.042 966.256,469.822 960.928,469.822 Z M960.928,467.05 C963.988,467.05 965.968,465.214 965.968,461.47 L965.968,458.734 C965.968,454.99 963.988,453.154 960.928,453.154 C957.868,453.154 955.888,454.99 955.888,458.734 L955.888,461.47 C955.888,465.214 957.868,467.05 960.928,467.05 Z M987.856,461.138 L977.2,461.138 L977.2,457.718 L987.856,457.718 L987.856,461.138 Z M948.212806,449.131111 L940.677876,441.596181 L943.096181,439.177876 L950.631111,446.712806 L948.212806,449.131111 Z M978.759819,479.678124 L971.224889,472.143194 L973.643194,469.724889 L981.178124,477.259819 L978.759819,479.678124 Z M959.218,444.656 L959.218,434 L962.638,434 L962.638,444.656 L959.218,444.656 Z M959.218,487.856 L959.218,477.2 L962.638,477.2 L962.638,487.856 L959.218,487.856 Z M971.224889,448.212806 L978.759819,440.677876 L981.178124,443.096181 L973.643194,450.631111 L971.224889,448.212806 Z M940.677876,478.759819 L948.212806,471.224889 L950.631111,473.643194 L943.096181,481.178124 L940.677876,478.759819 Z" id="-o-"></path>
        </g>
    </g>
</svg>