<?xml version="1.0" encoding="utf-8"?>
<!-- Generator: Adobe Illustrator 23.0.1, SVG Export Plug-In . SVG Version: 6.00 Build 0)  -->
<svg version="1.1" id="Layer_1" xmlns="http://www.w3.org/2000/svg" xmlns:xlink="http://www.w3.org/1999/xlink" x="0px" y="0px"
	 viewBox="0 0 422.83 119.74" style="enable-background:new 0 0 422.83 119.74;" xml:space="preserve">
<g id="lIzTt5_1_">
</g>
<g id="oBIjGG_1_">
	<g>
		<path d="M309.89,28.82c-5.03,0-9.3-0.01-13.58,0c-15.66,0.03-31.33-0.06-46.99,0.16c-7.63,0.11-11.8,6.75-8.53,13.58
			c0.96,2,3.36,4.13,5.46,4.59c4.25,0.93,8.74,0.84,13.14,1.02c8.59,0.35,17.21,0.39,25.78,0.94c13.76,0.89,22.49,8.49,27.01,21.24
			c5.08,14.36,0.87,30.49-10.41,40.04c-5.74,4.86-12.69,6.83-19.91,6.91c-26.26,0.26-52.51,0.1-78.77,0.2
			c-2.41,0.01-2.9-1.36-3.46-3.13c-5.11-16.29-10.26-32.58-15.4-48.86c-3.58-11.35-7.14-22.7-10.81-34.02
			c-0.78-2.41-1.05-5.82-4.35-5.94c-3.46-0.13-4.15,3.26-4.99,5.8c-7.68,23.45-15.27,46.92-22.87,70.4
			c-1.39,4.3-2.62,8.66-4.12,12.92c-0.33,0.94-1.46,2.25-2.25,2.27c-7.92,0.17-15.85,0.1-24.36,0.1c1.92-5.91,3.63-11.24,5.37-16.56
			c9.03-27.64,18.01-55.29,27.12-82.9c3.01-9.13,9.77-14.18,18.94-16.13c6.26-1.33,12.48-1.09,18.57,1.15
			c7.05,2.59,12.06,7.18,14.38,14.43c6.2,19.41,12.39,38.82,18.56,58.24c1.57,4.93,3.09,9.88,4.56,14.84
			c0.46,1.55,1.07,2.35,2.93,2.35c19.3,0.05,38.61,0.25,57.91,0.31c4.46,0.01,8.72-0.82,10.57-5.71c2.44-6.44-0.99-12.65-7.86-13.29
			c-7.11-0.66-14.31-0.41-21.46-0.71c-6.27-0.27-12.59-0.39-18.8-1.22c-10.81-1.45-18.41-7.65-22.76-17.52
			c-6.04-13.72-4.3-34.15,12.11-45.05c6.09-4.05,13.11-5.32,20.2-5.38c18.85-0.16,37.71,0.03,56.56,0.22
			c0.85,0.01,2.39,1.35,2.41,2.1C309.96,13.59,309.89,20.97,309.89,28.82z"/>
		<path d="M24.53,116.76c-8.22,0-16.12,0-24.53,0c0-5.73-0.01-11.3,0-16.88c0.07-21.62,0.06-43.24,0.27-64.86
			c0.05-5.27,0.26-10.66,1.42-15.76C4.07,8.81,11.96,3.7,21.63,1.17c7.54-1.97,15.12-1.45,22.39,1.59
			c6.62,2.77,11.67,7.38,13.95,14.21c2.85,8.56,5.22,17.28,7.54,26c3.99,15,7.75,30.06,11.71,45.06c0.46,1.76,1.21,3.97,2.56,4.83
			c1.72,1.1,4.26,1.62,6.3,1.33c2.91-0.41,3.35-3.17,3.37-5.7c0.09-11.69,0.1-23.38,0.19-35.07c0.12-15.77,0.29-31.54,0.43-47.31
			c0.01-1.46-0.15-2.98,2.04-2.97c7.37,0.02,14.74,0.01,22.75,0.01c0,2.56,0.01,4.82,0,7.08c-0.13,26.46-0.25,52.93-0.43,79.39
			c-0.02,2.86-0.29,5.73-0.67,8.57c-1.73,12.77-12.29,19.56-23.51,21.09c-9.78,1.34-19.19-0.03-26.92-6.99
			c-4.94-4.45-7.32-10.4-8.99-16.64c-5.69-21.27-11.32-42.56-16.98-63.85c-0.23-0.85-0.44-1.71-0.78-2.52
			c-1.21-2.81-3.22-4.53-6.44-4.02c-3.27,0.52-4.61,2.87-4.69,5.91c-0.16,6.6-0.21,13.21-0.25,19.81
			c-0.15,20.94-0.28,41.87-0.43,62.81C24.78,114.67,24.64,115.53,24.53,116.76z"/>
		<path d="M307.68,117.95c0.39-1.65,0.56-2.72,0.89-3.73c10.24-31.53,20.67-63,30.7-94.59c7.02-22.1,37.27-22.36,47.56-9.73
			c2.57,3.15,4.45,7.14,5.7,11.04c9.94,31.04,19.66,62.16,29.44,93.26c0.29,0.92,0.48,1.88,0.86,3.37c-4.07,0-7.77,0.01-11.47,0
			c-3.97-0.01-7.95,0.12-11.9-0.14c-1.06-0.07-2.66-1.15-2.96-2.1c-6.39-19.8-12.63-39.66-18.89-59.5
			c-2.52-7.98-4.98-15.97-7.53-23.94c-0.73-2.27-1.21-5.1-4.28-5.2c-3.32-0.11-3.84,2.91-4.61,5.24
			c-5.19,15.68-10.3,31.39-15.41,47.09c-3.91,12.05-7.73,24.12-11.73,36.14c-0.37,1.11-1.75,2.65-2.71,2.68
			C323.65,118.05,315.95,117.95,307.68,117.95z"/>
	</g>
</g>
</svg>
