<svg xmlns="http://www.w3.org/2000/svg" viewBox="0 0 179.28 50.87"><defs><style>.cls-1{fill:#8b8b8b;}</style></defs><g id="Layer_2" data-name="Layer 2"><g id="Icons"><path class="cls-1" d="M0,11.35H9.11L12.56,16V34.85L9.11,39.52H0V50.87H30.07V39.52h-8L18.6,34.85V16l3.45-4.66h8V0H0ZM17.13,45.19A2.1,2.1,0,1,1,15,43.1,2.1,2.1,0,0,1,17.13,45.19Zm0-39.51A2.1,2.1,0,1,1,15,3.58,2.1,2.1,0,0,1,17.13,5.68Z"/><path class="cls-1" d="M151.65,15.45c-3,.51-.64,18.38-10.93,31.69-2.24,2.89-4.38,4-6.22,3.68-4.54-.74-3.71-17.12-.41-28.47A50.46,50.46,0,0,1,141.1,8c3.51-5,6-8.22,8.71-8,6.82.53,7,22.39,14.81,23.66,5.94,1,10.8-10.9,13.39-9.8,4.16,1.76-2.65,34.7-9.8,34.69S155.64,14.76,151.65,15.45Z"/><path class="cls-1" d="M119.19,29.35Q109,26.14,103,26.48q2.94,5.2,10.73,12.81,4.73,4.58,2.75,8a4.39,4.39,0,0,1-2.89,2.3,4.61,4.61,0,0,1-3.37-.51c-1.54-.88-2.71-3.44-3.53-7.67a44.18,44.18,0,0,0-5.42-13.61l-.84,1.46a35.32,35.32,0,0,0-3.87,10.19,29.54,29.54,0,0,1-2.28,7.44,5.06,5.06,0,0,1-3.13,2.65,4.68,4.68,0,0,1-3.56-.5,4.22,4.22,0,0,1-2.27-3,5.68,5.68,0,0,1,.8-3.82q.74-1.28,5-5.12a39.43,39.43,0,0,0,8-10.52q-6.49.6-8,.81a24.14,24.14,0,0,0-3.75.91,71.61,71.61,0,0,1-8,2.18,5.19,5.19,0,0,1-3.15-.84,4.39,4.39,0,0,1-2.16-2.85,4.74,4.74,0,0,1,.52-3.58q2-3.48,7.69-1.6a47.94,47.94,0,0,0,16.93,2.74l-.64-1.11q-2.94-5.19-10.58-11.88Q83.66,7.5,85.88,3.64a4,4,0,0,1,3.21-2.22,6,6,0,0,1,3.43.67q2.37,1.35,3.66,8.48a30.58,30.58,0,0,0,4.37,11.68l.56.84.45-.79a37.61,37.61,0,0,0,4.74-12c.62-3.56,1.12-5.67,1.51-6.35A5.54,5.54,0,0,1,111,1.42a4.79,4.79,0,0,1,4.12.45,4.07,4.07,0,0,1,2.15,3,5.83,5.83,0,0,1-.8,3.87c-.2.34-2.18,2.33-6,6s-6,6.57-6.76,8.79l-.28.88a39,39,0,0,0,13.17-2.23q6.87-2.34,9.46-.86a4.27,4.27,0,0,1,2.33,2.91,4.5,4.5,0,0,1-.46,3.1Q125.6,31.38,119.19,29.35Z"/><path class="cls-1" d="M58.09,32.49a7.06,7.06,0,1,1,5.59-11.36l2.67-2.05,11.25-10L64.27,19.61,75.57,6.9l-12,12L73.31,5,62.75,18.33l8.08-15L61.89,17.84,68.18,2,61,17.45,65.39,1,60.05,17.17,62.5.34,59.08,17l.48-17L58.09,16.94h0L56.62,0V0l.47,17L53.68.38v0l2.44,16.79L50.8,1.06l0,0v0l4.39,16.39L48,2.08l0,0,0,0,6.27,15.76L45.36,3.41l0,0,0,0,8.07,14.92L42.89,5l0,0,0,0,9.74,13.89-12-12,0,0,0,0L51.91,19.61,38.61,9.08l0,0,0,0L51.27,20.37,36.84,11.45l0,0,0,0,13.89,9.74L35.36,14l0,0,0,0,14.93,8.06L34.18,16.73h0L50,23,33.33,19.57h0l0,0L49.72,24l-16.9-1.46h0l16.79,2.44-17,.5h0l17,.49L32.82,28.38h0l16.9-1.46L33.33,31.29h0L50,27.87,34.18,34.13l0,0h0L50.29,28.8,35.36,36.85l0,0h0l15.37-7.19L36.84,39.42l0,0,0,0L51.27,30.5,38.61,41.78l0,0,0,0,13.3-10.53L40.63,43.93l0,0,0,0,12-12L42.89,45.83l0,0,0,0,10.54-13.3L45.36,47.46l0,0,0,0L54.28,33,48,48.79l0,0,0,0,7.17-15.37L50.79,49.81v0l0,0L56.12,33.7,53.68,50.49v0l3.41-16.62-.47,17v0l1.47-16.89h0l1.47,16.94-.48-17L62.5,50.53,60.05,33.7l5.34,16.14L61,33.42l7.19,15.41L61.89,33l8.94,14.46-8.08-15L73.31,45.86,63.54,31.94l12,12L66.29,33.53l-3.18-3.14A7,7,0,0,1,58.09,32.49Z"/></g></g></svg>